<?xml version="1.0" encoding="UTF-8"?>
<svg version="1.1" xmlns="http://www.w3.org/2000/svg" width="1408" height="768">
<path d="M0 0 C464.64 0 929.28 0 1408 0 C1408 253.44 1408 506.88 1408 768 C943.36 768 478.72 768 0 768 C0 514.56 0 261.12 0 0 Z " fill="#FEFEFE" transform="translate(0,0)"/>
<path d="M0 0 C1.34363375 1.02284448 2.6566503 2.08705166 3.9375 3.1875 C4.69160156 3.81011719 5.44570313 4.43273437 6.22265625 5.07421875 C13.51196527 11.65771821 17.84514688 19.91044065 20.9375 29.1875 C21.03360691 31.90676022 21.07683225 34.59414954 21.0625 37.3125 C21.06636719 38.05371094 21.07023438 38.79492188 21.07421875 39.55859375 C21.0641598 45.0608402 21.0641598 45.0608402 19.9375 46.1875 C18.37577255 46.27435603 16.81020656 46.29452219 15.24609375 46.28515625 C14.30185547 46.28193359 13.35761719 46.27871094 12.38476562 46.27539062 C11.39154297 46.26701172 10.39832031 46.25863281 9.375 46.25 C8.37791016 46.24548828 7.38082031 46.24097656 6.35351562 46.23632812 C3.88145151 46.22450007 1.40950482 46.20801849 -1.0625 46.1875 C-1.23265625 45.25808594 -1.4028125 44.32867187 -1.578125 43.37109375 C-3.52701056 31.52580859 -3.52701056 31.52580859 -11.10546875 23.03125 C-19.46056793 17.64852497 -26.19645938 14.631423 -36.21484375 16.61328125 C-45.0188686 19.4549764 -50.37685468 25.96064534 -54.8359375 33.7578125 C-56.81943461 37.68690551 -58.3506043 41.0518509 -58.375 45.5 C-58.40013672 46.54607422 -58.40013672 46.54607422 -58.42578125 47.61328125 C-57.41318467 54.78856241 -54.2254939 59.84006068 -49.4375 65.125 C-48.63517944 66.03221802 -48.63517944 66.03221802 -47.81665039 66.95776367 C-41.93046937 73.55848782 -35.90852609 79.77128636 -29 85.3125 C-24.08726879 89.26766496 -19.38867896 93.41423469 -14.75 97.6875 C-14.08025146 98.29223145 -13.41050293 98.89696289 -12.72045898 99.52001953 C-5.67849446 106.07660372 -0.83534103 113.07684365 1.75 122.375 C2.05454102 123.38336914 2.05454102 123.38336914 2.36523438 124.41210938 C7.16090509 140.66674246 5.76455003 155.57563604 -1.5625 170.75 C-8.54028663 182.69945961 -18.43474327 190.01242618 -31.0625 195.1875 C-31.65587095 195.4450698 -32.24924191 195.7026396 -32.8605938 195.96801454 C-37.67707873 197.94942296 -41.98564408 198.61224906 -47.19970703 198.54826355 C-47.97833383 198.55082682 -48.75696062 198.5533901 -49.55918217 198.55603105 C-52.14644195 198.56093958 -54.73310724 198.54452508 -57.3203125 198.52807617 C-59.18353766 198.52722926 -61.04676382 198.52770629 -62.9099884 198.52940369 C-67.9528306 198.53026257 -72.99545766 198.51265399 -78.03824997 198.49168181 C-83.31398165 198.4728973 -88.58971855 198.47116317 -93.86547852 198.46760559 C-103.84902071 198.45829035 -113.83246407 198.43368357 -123.81596279 198.40355712 C-137.311501 198.36371875 -150.80706634 198.34755403 -164.30264854 198.33005047 C-185.55600636 198.30186215 -206.80915563 198.24208907 -228.0625 198.1875 C-228.0625 155.2875 -228.0625 112.3875 -228.0625 68.1875 C-216.5125 63.8975 -204.9625 59.6075 -193.0625 55.1875 C-178.35657086 49.60469357 -163.73089817 43.91327892 -149.21679688 37.85302734 C-142.91625422 35.24647237 -136.64112265 32.98743321 -130.0625 31.1875 C-127.39523439 35.26920336 -124.91433074 39.3658249 -122.765625 43.74609375 C-115.36188637 58.63710036 -105.38186104 68.98066798 -92.91796875 79.79296875 C-88.96159031 83.23230668 -85.29457836 86.8941008 -81.640625 90.6484375 C-76.42190617 95.95132921 -70.97379641 100.87782489 -64.88671875 105.16796875 C-58.043986 110.27979747 -53.07854294 114.90947544 -51.50390625 123.58203125 C-50.7852146 129.57461438 -50.52869189 135.58137046 -50.28857422 141.609375 C-49.93412203 147.21936562 -48.93132795 152.67329057 -47.875 158.1875 C-47.52515235 160.04125444 -47.17731171 161.89538945 -46.83203125 163.75 C-46.68354736 164.51441406 -46.53506348 165.27882813 -46.38208008 166.06640625 C-46.0625 168.1875 -46.0625 168.1875 -46.0625 172.1875 C-31.9476219 167.36142032 -31.9476219 167.36142032 -22.203125 156.63671875 C-20.64209746 151.91621425 -20.47445997 147.50954864 -20.4375 142.5625 C-20.4267041 141.66797119 -20.4159082 140.77344238 -20.40478516 139.85180664 C-20.58460594 131.39475723 -23.35043645 125.53813231 -29.125 119.375 C-30.300625 118.11816406 -30.300625 118.11816406 -31.5 116.8359375 C-37.77720939 110.34821194 -44.05892334 103.94006598 -50.90625 98.046875 C-66.05466713 84.9841095 -81.55264143 70.57883395 -83.37890625 49.54296875 C-83.64024503 41.22227921 -82.65916422 34.67966108 -79.0625 27.1875 C-78.57652344 26.13820313 -78.09054687 25.08890625 -77.58984375 24.0078125 C-69.92473673 8.60511518 -58.76002921 -1.56885977 -42.47265625 -7.0859375 C-28.05422361 -11.43249904 -12.66254066 -7.91685992 0 0 Z " fill="#8EBBD1" transform="translate(888.0625,324.8125)"/>
<path d="M0 0 C0.6846936 -0.00334351 1.36938721 -0.00668701 2.0748291 -0.01013184 C14.89970389 -0.01386978 26.36759833 2.168399 38.4375 6.5 C39.30656982 6.79487305 40.17563965 7.08974609 41.07104492 7.39355469 C47.01853658 9.45791191 52.59231085 11.96809534 58.22827148 14.76538086 C69.08184034 20.09789699 77.98176386 24.43931974 90.1015625 20.671875 C93.3153251 19.35287146 96.15656311 17.66986882 99.125 15.875 C101.80890505 14.27916456 104.47610475 13.48713175 107.4375 12.5 C108.66517054 11.87943053 109.88471803 11.24264314 111.09765625 10.59375 C115.30701722 8.46427458 119.51166933 7.13360328 124.0625 5.9375 C124.76761719 5.74220703 125.47273437 5.54691406 126.19921875 5.34570312 C128.60404767 4.69466037 131.01815761 4.09484339 133.4375 3.5 C134.45674561 3.23380859 135.47599121 2.96761719 136.52612305 2.69335938 C145.35868054 0.55705391 153.71372168 0.03195455 162.74536133 0.10888672 C165.02939499 0.12521008 167.31171722 0.10881414 169.59570312 0.08984375 C171.06510803 0.09182264 172.53451188 0.09565895 174.00390625 0.1015625 C175.96759155 0.10663818 175.96759155 0.10663818 177.97094727 0.11181641 C181.63131927 0.52170383 183.53114913 1.28328598 186.4375 3.5 C189.38265779 9.39031559 188.27267855 21.08605049 186.3125 27.3125 C185.72543316 28.72470686 185.09726676 30.12025962 184.4375 31.5 C184.04691406 32.39460938 183.65632812 33.28921875 183.25390625 34.2109375 C180.48805638 40.18141229 177.17584712 45.58808118 173.375 50.9375 C172.9637085 51.51653076 172.55241699 52.09556152 172.12866211 52.69213867 C163.38392947 64.66457075 152.2240062 73.11364078 137.4375 75.5 C125.35426674 76.27571374 114.14717906 74.95627533 104.05859375 67.81640625 C101.0534955 65.16063388 98.97971501 62.24628938 96.875 58.875 C96.48441406 58.25906982 96.09382812 57.64313965 95.69140625 57.00854492 C92.62856263 52.06290042 90.26338673 47.03200205 88.4375 41.5 C88.1075 40.51 87.7775 39.52 87.4375 38.5 C85.66742286 38.41885894 83.89627902 38.36074495 82.125 38.3125 C81.13886719 38.27769531 80.15273438 38.24289062 79.13671875 38.20703125 C75.94086428 38.55390402 75.46114888 39.11705298 73.4375 41.5 C72.39582764 43.22811978 72.39582764 43.22811978 71.52734375 45.125 C66.00962049 56.35253549 60.12996209 68.21632598 47.640625 72.81640625 C46.91359375 73.04199219 46.1865625 73.26757812 45.4375 73.5 C44.50421875 73.85191406 43.5709375 74.20382812 42.609375 74.56640625 C32.20632484 77.62838776 20.22975154 75.7391194 10.4375 71.5 C6.06925808 68.8747775 2.25878807 65.86358505 -1.5625 62.5 C-2.42617188 61.7471875 -3.28984375 60.994375 -4.1796875 60.21875 C-17.66633931 47.61440251 -27.15317299 30.82544871 -28.3125 12.125 C-28.05480989 8.25964828 -27.62647073 7.57645283 -25 4.4375 C-17.02174717 -0.05933341 -8.92066295 0.02294052 0 0 Z " fill="#060706" transform="translate(618.5625,252.5)"/>
<path d="M0 0 C1.34363375 1.02284448 2.6566503 2.08705166 3.9375 3.1875 C5.06865234 4.12142578 5.06865234 4.12142578 6.22265625 5.07421875 C13.51196527 11.65771821 17.84514688 19.91044065 20.9375 29.1875 C21.03360691 31.90676022 21.07683225 34.59414954 21.0625 37.3125 C21.06636719 38.05371094 21.07023438 38.79492188 21.07421875 39.55859375 C21.0641598 45.0608402 21.0641598 45.0608402 19.9375 46.1875 C18.37577255 46.27435603 16.81020656 46.29452219 15.24609375 46.28515625 C14.30185547 46.28193359 13.35761719 46.27871094 12.38476562 46.27539062 C11.39154297 46.26701172 10.39832031 46.25863281 9.375 46.25 C8.37791016 46.24548828 7.38082031 46.24097656 6.35351562 46.23632812 C3.88145151 46.22450007 1.40950482 46.20801849 -1.0625 46.1875 C-1.23265625 45.25808594 -1.4028125 44.32867187 -1.578125 43.37109375 C-3.52701056 31.52580859 -3.52701056 31.52580859 -11.10546875 23.03125 C-19.46056793 17.64852497 -26.19645938 14.631423 -36.21484375 16.61328125 C-45.0188686 19.4549764 -50.37685468 25.96064534 -54.8359375 33.7578125 C-56.81943461 37.68690551 -58.3506043 41.0518509 -58.375 45.5 C-58.39175781 46.19738281 -58.40851562 46.89476562 -58.42578125 47.61328125 C-57.41318467 54.78856241 -54.2254939 59.84006068 -49.4375 65.125 C-48.63517944 66.03221802 -48.63517944 66.03221802 -47.81665039 66.95776367 C-41.93046937 73.55848782 -35.90852609 79.77128636 -29 85.3125 C-24.08726879 89.26766496 -19.38867896 93.41423469 -14.75 97.6875 C-13.7453772 98.59459717 -13.7453772 98.59459717 -12.72045898 99.52001953 C-5.67849446 106.07660372 -0.83534103 113.07684365 1.75 122.375 C1.95302734 123.04724609 2.15605469 123.71949219 2.36523438 124.41210938 C7.16090509 140.66674246 5.76455003 155.57563604 -1.5625 170.75 C-8.56368381 182.73952727 -18.43956617 189.9240045 -31.0625 195.1875 C-31.89910156 195.57679688 -32.73570312 195.96609375 -33.59765625 196.3671875 C-36.5217405 197.34033757 -39.0009638 197.32989703 -42.0625 197.1875 C-42.26166016 195.86685547 -42.26166016 195.86685547 -42.46484375 194.51953125 C-42.64144531 193.35808594 -42.81804688 192.19664062 -43 191 C-43.17402344 189.85144531 -43.34804688 188.70289063 -43.52734375 187.51953125 C-43.84046198 185.56997032 -44.19065209 183.62451461 -44.62890625 181.69921875 C-45.18008273 178.50636762 -45.12589397 175.42059232 -45.0625 172.1875 C-43.97710938 171.775 -42.89171875 171.3625 -41.7734375 170.9375 C-30.43279637 166.53071287 -30.43279637 166.53071287 -23.0625 157.1875 C-22.71993164 156.58542725 -22.37736328 155.98335449 -22.02441406 155.36303711 C-20.27595142 151.40858264 -20.69339483 147.19946494 -20.6875 142.9375 C-20.66300781 142.02097656 -20.63851562 141.10445312 -20.61328125 140.16015625 C-20.57606059 131.46292781 -23.18414592 125.71561249 -29.125 119.375 C-29.90875 118.53710938 -30.6925 117.69921875 -31.5 116.8359375 C-37.77720939 110.34821194 -44.05892334 103.94006598 -50.90625 98.046875 C-66.05466713 84.9841095 -81.55264143 70.57883395 -83.37890625 49.54296875 C-83.64024503 41.22227921 -82.65916422 34.67966108 -79.0625 27.1875 C-78.57652344 26.13820313 -78.09054687 25.08890625 -77.58984375 24.0078125 C-69.92473673 8.60511518 -58.76002921 -1.56885977 -42.47265625 -7.0859375 C-28.05422361 -11.43249904 -12.66254066 -7.91685992 0 0 Z " fill="#C4A63B" transform="translate(888.0625,324.8125)"/>
<path d="M0 0 C4.45710296 3.11096183 6.41550898 9.05506952 8.8293457 13.78271484 C9.4397168 14.93255859 10.05008789 16.08240234 10.67895508 17.26708984 C11.2506543 18.37310547 11.82235352 19.47912109 12.41137695 20.61865234 C12.93578369 21.63233887 13.46019043 22.64602539 14.00048828 23.69042969 C15.0168457 26.40771484 15.0168457 26.40771484 14.95410156 28.58007812 C13.64577571 31.1312965 12.08507009 31.98037424 9.6262207 33.43896484 C8.6995459 33.99616211 7.77287109 34.55335938 6.81811523 35.12744141 C5.81119629 35.71493164 4.80427734 36.30242187 3.7668457 36.90771484 C2.73285645 37.52356445 1.69886719 38.13941406 0.63354492 38.77392578 C-7.8714872 43.81807503 -16.4526054 48.73142009 -25.05737305 53.60302734 C-29.62674826 56.19402936 -34.15334159 58.85225646 -38.6706543 61.53271484 C-45.29241424 65.45850066 -51.98972891 69.23167142 -58.74560547 72.921875 C-63.03370916 75.27541028 -67.16774715 77.7613752 -71.23681641 80.47875977 C-72.9831543 81.40771484 -72.9831543 81.40771484 -75.9831543 81.40771484 C-82.13681363 69.81452455 -88.16188749 58.17124476 -93.9831543 46.40771484 C-94.83586914 44.82410156 -94.83586914 44.82410156 -95.70581055 43.20849609 C-96.9831543 40.40771484 -96.9831543 40.40771484 -96.9831543 36.40771484 C-86.38679752 32.10587531 -75.76014073 27.90731539 -65.0456543 23.90771484 C-64.03220947 23.52929443 -63.01876465 23.15087402 -61.97460938 22.76098633 C-59.94728942 22.00460087 -57.91986569 21.24849345 -55.89233398 20.49267578 C-41.75828563 15.22146809 -27.73237669 9.73142262 -13.77880859 4 C-12.67835205 3.54802246 -11.57789551 3.09604492 -10.4440918 2.63037109 C-8.97141846 2.02334351 -8.97141846 2.02334351 -7.46899414 1.40405273 C-2.27254186 -0.6787131 -2.27254186 -0.6787131 0 0 Z " fill="#6A9AB0" transform="translate(757.983154296875,356.59228515625)"/>
<path d="M0 0 C0.66 0 1.32 0 2 0 C2 36.96 2 73.92 2 112 C-3.75127136 107.68654648 -8.35374776 104.0784023 -12.9375 98.74609375 C-26.4732415 83.59529219 -47.80639323 75.97202563 -66 68 C-66 64 -66 64 -64.70263672 62.53295898 C-63.76315186 61.80314819 -63.76315186 61.80314819 -62.8046875 61.05859375 C-58.9140238 57.84781025 -55.35464999 54.43793739 -51.8203125 50.84765625 C-51.00587677 50.02447403 -51.00587677 50.02447403 -50.17498779 49.18466187 C-47.90974108 46.89300179 -45.6491818 44.596802 -43.39257812 42.29663086 C-41.7269587 40.60099814 -40.05532413 38.91148699 -38.3828125 37.22265625 C-37.87138702 36.69777115 -37.35996155 36.17288605 -36.83303833 35.63209534 C-35.59282171 34.38304841 -34.30066105 33.18597483 -33 32 C-32.34 32 -31.68 32 -31 32 C-30.74492676 31.41444336 -30.48985352 30.82888672 -30.22705078 30.22558594 C-28.87456061 27.772482 -27.42534943 26.28317598 -25.3671875 24.390625 C-24.64273438 23.71773437 -23.91828125 23.04484375 -23.171875 22.3515625 C-22.41390625 21.65804687 -21.6559375 20.96453125 -20.875 20.25 C-19.39203089 18.8815057 -17.91025665 17.51171544 -16.4296875 16.140625 C-15.6984668 15.46580078 -14.96724609 14.79097656 -14.21386719 14.09570312 C-11.26389036 11.30317984 -8.44127626 8.39463861 -5.63330078 5.45996094 C-4 4 -4 4 -2 4 C-2 3.34 -2 2.68 -2 2 C-1.34 2 -0.68 2 0 2 C0 1.34 0 0.68 0 0 Z " fill="#C3A63B" transform="translate(800,129)"/>
<path d="M0 0 C2 0 2 0 4.27734375 2.15014648 C5.17582031 3.09059814 6.07429687 4.0310498 7 5 C7.88816406 5.89340088 8.77632812 6.78680176 9.69140625 7.70727539 C10.15538818 8.17448502 10.61937012 8.64169464 11.09741211 9.12306213 C13.18187095 11.22104599 15.26912517 13.31624031 17.35644531 15.41137695 C18.45304397 16.51302531 19.54874636 17.61556655 20.64355469 18.71899414 C22.23914874 20.32677742 23.83800436 21.93125554 25.4375 23.53515625 C25.920979 24.02379654 26.40445801 24.51243683 26.90258789 25.0158844 C29.78907169 27.90283809 32.81534628 30.45347568 36 33 C37.6868541 34.64623169 39.3519431 36.31492908 41 38 C42.01347418 39.00672454 43.02896735 40.01141937 44.04614258 41.0144043 C47.00636748 43.93925341 49.96066164 46.87001077 52.9128418 49.80297852 C54.18647901 51.06646722 55.46189176 52.32816847 56.73901367 53.58813477 C58.58719248 55.4121853 60.42895096 57.24250523 62.26953125 59.07421875 C62.84443802 59.63880295 63.41934479 60.20338715 64.01167297 60.78507996 C65.37959931 62.15261225 66.69539653 63.57193248 68 65 C68 65.66 68 66.32 68 67 C67.04915527 67.45270264 67.04915527 67.45270264 66.07910156 67.91455078 C59.97176163 70.82402275 53.87081103 73.74650106 47.77294922 76.67578125 C45.59579445 77.71547904 43.41372483 78.74018679 41.22265625 79.75 C30.75064179 84.69785113 22.10811848 91.54361385 14.09765625 99.859375 C9.72586026 104.32072361 4.99213447 108.25589915 0 112 C0 75.04 0 38.08 0 0 Z " fill="#C3A53C" transform="translate(597,129)"/>
<path d="M0 0 C4.21974474 2.95167204 8.10882671 6.10519855 10 11 C11.10460982 19.97689956 9.0262821 26.52975231 3.6875 33.6875 C-1.1817662 39.60600138 -6.18963057 44.50903374 -14 46 C-25.79026375 46.95817802 -35.72686748 46.60987911 -45.1875 38.75 C-55.1580801 29.30207128 -63.88342522 18.08954142 -64.375 3.8125 C-64.21614892 -0.4433852 -63.6155667 -3.51257774 -61 -7 C-58.25 -8.25 -58.25 -8.25 -55 -9 C-53.989375 -9.37125 -52.97875 -9.7425 -51.9375 -10.125 C-35.36742122 -14.56277488 -14.12320437 -8.96092967 0 0 Z " fill="#FAFAFA" transform="translate(673,275)"/>
<path d="M0 0 C2.46569676 2.46569676 2.30585221 3.98048962 2.38037109 7.35717773 C2.3478088 20.34805442 -1.56529966 29.88796278 -10.375 39.625 C-11.24125 40.40875 -12.1075 41.1925 -13 42 C-13.58523438 42.56589844 -14.17046875 43.13179688 -14.7734375 43.71484375 C-22.69560232 51.12034565 -29.33766616 53.53270192 -40.18310547 53.33666992 C-47.87457743 53.04266454 -53.91242635 52.0513909 -60 47 C-66.90084386 39.49200035 -70.63747759 31.76708507 -71.1875 21.5 C-70.91211872 16.35954943 -70.05176298 13.96791614 -66.20703125 10.4296875 C-65.08416626 9.56675718 -63.95231959 8.71540813 -62.8125 7.875 C-62.26013672 7.44574219 -61.70777344 7.01648438 -61.13867188 6.57421875 C-45.70200239 -5.07948063 -17.78776583 -6.70888054 0 0 Z " fill="#FCFCFB" transform="translate(787,268)"/>
<path d="M0 0 C1.32 0.33 2.64 0.66 4 1 C4 2.65 4 4.3 4 6 C4.886875 6.061875 5.77375 6.12375 6.6875 6.1875 C10.81338128 7.19950862 12.38802493 8.69661976 15 12 C15 13.32 15 14.64 15 16 C12.03 16 9.06 16 6 16 C5.67 15.01 5.34 14.02 5 13 C4.34 13 3.68 13 3 13 C3.56828846 16.40973077 4.31757813 18.46206064 7.06640625 20.62890625 C8.66131527 21.65036484 10.27452426 22.64391608 11.90625 23.60546875 C14 25 14 25 16 28 C16.43240411 32.46817575 16.53438303 34.9079999 14.5625 38.9375 C10.93675171 41.85578521 7.54721456 41.89312103 3 42 C3.33 43.98 3.66 45.96 4 48 C2.68 48 1.36 48 0 48 C0 46.02 0 44.04 0 42 C-1.051875 41.938125 -2.10375 41.87625 -3.1875 41.8125 C-7.71428491 40.84777535 -9.19813256 39.6259461 -12 36 C-12.8125 33.1875 -12.8125 33.1875 -13 31 C-11.39667209 30.91878076 -9.79215974 30.86070866 -8.1875 30.8125 C-6.84751953 30.76029297 -6.84751953 30.76029297 -5.48046875 30.70703125 C-2.58352485 31.04918998 -1.77444972 31.75393573 0 34 C0.0615942 30.58863524 0.0615942 30.58863524 -1 27 C-4.31005037 25.2241456 -4.31005037 25.2241456 -8 24 C-10.97823368 21.78541598 -11.861462 20.79659348 -12.5 17.125 C-11.87069016 13.19181349 -10.510892 11.068868 -8 8 C-4.9744375 5.91992578 -3.85524891 6 0 6 C0 4.02 0 2.04 0 0 Z " fill="#0C0C0C" transform="translate(754,546)"/>
<path d="M0 0 C3.52761909 2.19496299 5.46525558 4.17041466 7 8 C7.22705078 10.47363281 7.22705078 10.47363281 7.1953125 13.203125 C7.18886719 14.1828125 7.18242188 15.1625 7.17578125 16.171875 C7.15902344 17.18765625 7.14226563 18.2034375 7.125 19.25 C7.11597656 20.28125 7.10695313 21.3125 7.09765625 22.375 C7.07412011 24.91690287 7.04124023 27.4583328 7 30 C0.375 30.125 0.375 30.125 -3 29 C-2.97679687 27.72382812 -2.95359375 26.44765625 -2.9296875 25.1328125 C-2.91093171 23.4635475 -2.89273131 21.7942762 -2.875 20.125 C-2.85824219 19.28324219 -2.84148438 18.44148437 -2.82421875 17.57421875 C-2.81777344 16.76855469 -2.81132813 15.96289062 -2.8046875 15.1328125 C-2.79421387 14.38918457 -2.78374023 13.64555664 -2.77294922 12.87939453 C-2.8334403 10.75509765 -2.8334403 10.75509765 -5 9 C-7.54190002 8.7499227 -7.54190002 8.7499227 -10 9 C-11.54950268 10.54950268 -11.21655193 12.09990594 -11.31640625 14.25390625 C-11.35830078 15.10791016 -11.40019531 15.96191406 -11.44335938 16.84179688 C-11.48267578 17.73962891 -11.52199219 18.63746094 -11.5625 19.5625 C-11.60568359 20.46419922 -11.64886719 21.36589844 -11.69335938 22.29492188 C-11.79977984 24.52975156 -11.90042481 26.76485486 -12 29 C-14.97 29 -17.94 29 -21 29 C-21.19706355 25.08375299 -21.38099159 21.16699634 -21.5625 17.25 C-21.61857422 16.13882813 -21.67464844 15.02765625 -21.73242188 13.8828125 C-21.78076172 12.81289063 -21.82910156 11.74296875 -21.87890625 10.640625 C-21.9260376 9.65610352 -21.97316895 8.67158203 -22.02172852 7.65722656 C-22.00187518 5.2293192 -21.71119313 3.30838443 -21 1 C-17 1 -13 1 -9 1 C-5.89951072 -0.55024464 -3.42105782 -0.28992015 0 0 Z " fill="#090909" transform="translate(796,558)"/>
<path d="M0 0 C3.79183927 1.7235633 5.48628764 3.15169372 7 7 C7.22705078 9.47363281 7.22705078 9.47363281 7.1953125 12.203125 C7.18886719 13.1828125 7.18242188 14.1625 7.17578125 15.171875 C7.15902344 16.18765625 7.14226563 17.2034375 7.125 18.25 C7.11597656 19.28125 7.10695313 20.3125 7.09765625 21.375 C7.07412011 23.91690287 7.04124023 26.4583328 7 29 C4.03 29 1.06 29 -2 29 C-2.06058594 27.72382812 -2.12117187 26.44765625 -2.18359375 25.1328125 C-2.26799568 23.46352984 -2.35264386 21.79425963 -2.4375 20.125 C-2.47681641 19.28324219 -2.51613281 18.44148437 -2.55664062 17.57421875 C-2.59853516 16.76855469 -2.64042969 15.96289062 -2.68359375 15.1328125 C-2.72025146 14.38918457 -2.75690918 13.64555664 -2.79467773 12.87939453 C-2.89955865 10.91135688 -2.89955865 10.91135688 -4 9 C-6.41619823 8.74969023 -6.41619823 8.74969023 -9 9 C-10.9756562 11.96348429 -11.26376859 12.68020373 -11.4140625 16.01171875 C-11.47207031 17.14770508 -11.47207031 17.14770508 -11.53125 18.30664062 C-11.57765625 19.48516602 -11.57765625 19.48516602 -11.625 20.6875 C-11.68300781 21.88342773 -11.68300781 21.88342773 -11.7421875 23.10351562 C-11.83632494 25.06863475 -11.91924632 27.0342854 -12 29 C-14.97 29 -17.94 29 -21 29 C-21 19.76 -21 10.52 -21 1 C-18.03 1 -15.06 1 -12 1 C-11.67 1.99 -11.34 2.98 -11 4 C-10.29875 3.34 -9.5975 2.68 -8.875 2 C-5.48104445 -0.36101255 -4.04831424 -0.59037916 0 0 Z " fill="#0A0A0A" transform="translate(730,558)"/>
<path d="M0 0 C0.33 0 0.66 0 1 0 C1 42.57 1 85.14 1 129 C61.72 129 122.44 129 185 129 C183.8330806 122.50187648 183.8330806 122.50187648 181.8828125 116.23828125 C180.78006495 113.44237707 180.80289052 111.18004324 180.875 108.1875 C180.89304687 107.21167969 180.91109375 106.23585938 180.9296875 105.23046875 C180.95289063 104.49441406 180.97609375 103.75835937 181 103 C181.66 103.33 182.32 103.66 183 104 C185.30946857 112.2102667 186.54169065 120.47338793 186 129 C186.99 129.33 187.98 129.66 189 130 C126.63 130 64.26 130 0 130 C0 87.1 0 44.2 0 0 Z " fill="#ABC6CE" transform="translate(660,393)"/>
<path d="M0 0 C3.18246603 -0.63649321 5.8405319 -0.82735662 9 0 C13.66724052 4.8807744 19 15.10051763 19 22 C16.03 22 13.06 22 10 22 C9.73445312 21.28972656 9.46890625 20.57945312 9.1953125 19.84765625 C8.84210937 18.92855469 8.48890625 18.00945313 8.125 17.0625 C7.77695312 16.14597656 7.42890625 15.22945312 7.0703125 14.28515625 C6.2180914 11.85058944 6.2180914 11.85058944 4 11 C3.80664062 11.62648438 3.61328125 12.25296875 3.4140625 12.8984375 C3.15367187 13.71570313 2.89328125 14.53296875 2.625 15.375 C2.36976563 16.18710937 2.11453125 16.99921875 1.8515625 17.8359375 C1 20 1 20 -1 22 C-3.68839385 22.26991906 -6.29141936 22.08737357 -9 22 C-6.66062389 14.33204498 -3.45231194 7.22862726 0 0 Z " fill="#0F0F0F" transform="translate(686,552)"/>
<path d="M0 0 C0.66 0 1.32 0 2 0 C2 36.96 2 73.92 2 112 C-0.64 110.02 -3.28 108.04 -6 106 C-4 105 -4 105 0 106 C0 73 0 40 0 6 C-5.88456314 10.57688245 -9.70707511 13.60669275 -14.2421875 18.99609375 C-16.1274609 21.14530543 -18.09199341 23.1177771 -20.1875 25.0625 C-20.82042969 25.65160156 -21.45335937 26.24070313 -22.10546875 26.84765625 C-24 28 -24 28 -26.1184082 27.57202148 C-27.04979614 27.28887085 -27.04979614 27.28887085 -28 27 C-27.55720703 26.5875 -27.11441406 26.175 -26.65820312 25.75 C-24.60408111 23.83481444 -22.55178072 21.91769366 -20.5 20 C-19.76765137 19.31607178 -19.03530273 18.63214355 -18.28076172 17.92749023 C-13.86997034 13.79488781 -9.53997796 9.61284668 -5.3828125 5.22265625 C-4 4 -4 4 -2 4 C-2 3.34 -2 2.68 -2 2 C-1.34 2 -0.68 2 0 2 C0 1.34 0 0.68 0 0 Z " fill="#B9A24D" transform="translate(800,129)"/>
<path d="M0 0 C1.23556641 0.01740234 1.23556641 0.01740234 2.49609375 0.03515625 C3.32238281 0.04417969 4.14867187 0.05320312 5 0.0625 C5.63808594 0.07410156 6.27617188 0.08570313 6.93359375 0.09765625 C7.41570313 1.1340625 7.8978125 2.17046875 8.39453125 3.23828125 C9.03252277 4.60808657 9.67054523 5.97787748 10.30859375 7.34765625 C10.62570312 8.02957031 10.9428125 8.71148438 11.26953125 9.4140625 C11.73359375 10.40986328 11.73359375 10.40986328 12.20703125 11.42578125 C12.50577148 12.06837891 12.80451172 12.71097656 13.11230469 13.37304688 C13.75907991 14.73119794 14.45155175 16.06759034 15.16015625 17.39453125 C15.93359375 19.09765625 15.93359375 19.09765625 15.93359375 22.09765625 C13.29359375 22.09765625 10.65359375 22.09765625 7.93359375 22.09765625 C6.28359375 18.46765625 4.63359375 14.83765625 2.93359375 11.09765625 C0.95359375 14.72765625 -1.02640625 18.35765625 -3.06640625 22.09765625 C-5.37640625 22.09765625 -7.68640625 22.09765625 -10.06640625 22.09765625 C-9.44551179 17.10721704 -7.97139586 12.89037877 -6.06640625 8.28515625 C-5.793125 7.60517578 -5.51984375 6.92519531 -5.23828125 6.22460938 C-2.75928116 0.13040081 -2.75928116 0.13040081 0 0 Z " fill="#0D0E0D" transform="translate(818.06640625,551.90234375)"/>
<path d="M0 0 C0.66 0 1.32 0 2 0 C3.63402409 6.91782167 4.28264831 13.40190797 4.22705078 20.49853516 C4.22734283 21.49485962 4.22763489 22.49118408 4.22793579 23.5177002 C4.22655467 26.77491299 4.2110513 30.03189021 4.1953125 33.2890625 C4.19157804 35.56163406 4.18873311 37.83420725 4.18673706 40.10678101 C4.17913475 46.06122353 4.1595157 52.01556705 4.1373291 57.9699707 C4.11679712 64.05678977 4.10771967 70.14362497 4.09765625 76.23046875 C4.07626642 88.15368911 4.04217187 100.07683629 4 112 C2.515 112.495 2.515 112.495 1 113 C0.505 57.065 0.505 57.065 0 0 Z " fill="#FCFAE0" transform="translate(801,128)"/>
<path d="M0 0 C0.66 0 1.32 0 2 0 C3.38938077 1.96147874 4.7260411 3.96166576 6 6 C5.26983563 6.61623718 5.26983563 6.61623718 4.52492046 7.24492359 C2.67282993 9.37654978 2.6190972 10.29701666 2.60127258 13.08122253 C2.58873444 13.90993362 2.57619629 14.73864471 2.5632782 15.59246826 C2.56471329 16.49805481 2.56614838 17.40364136 2.56762695 18.33666992 C2.55233948 19.77110191 2.55233948 19.77110191 2.53674316 21.23451233 C2.50651443 24.39988997 2.49733206 27.56496549 2.48828125 30.73046875 C2.47144191 32.92337559 2.45329269 35.11627273 2.43388367 37.30915833 C2.38629681 43.08443166 2.35654358 48.8596657 2.33044434 54.6350708 C2.30068264 60.52697514 2.25413727 66.41874394 2.20898438 72.31054688 C2.12285241 83.87362714 2.05555113 95.43673523 2 107 C2.66 107 3.32 107 4 107 C2.25 110.875 2.25 110.875 0 112 C0 75.04 0 38.08 0 0 Z " fill="#B5A459" transform="translate(597,129)"/>
<path d="M0 0 C1.15822266 -0.00483398 1.15822266 -0.00483398 2.33984375 -0.00976562 C6.22431666 0.02726141 8.20317851 0.11461901 11.5 2.3125 C11.17 3.6325 10.84 4.9525 10.5 6.3125 C8.19 5.3225 5.88 4.3325 3.5 3.3125 C3.83 3.9725 4.16 4.6325 4.5 5.3125 C4.63415472 7.9848621 4.54318541 10.63500488 4.5 13.3125 C7.14 12.9825 9.78 12.6525 12.5 12.3125 C10.75 16.1875 10.75 16.1875 8.5 17.3125 C5.67409019 17.46321519 2.88927538 17.54382601 0.0625 17.5625 C-0.71416016 17.583125 -1.49082031 17.60375 -2.29101562 17.625 C-8.05919911 17.66474631 -8.05919911 17.66474631 -10.24633789 15.91699219 C-11.5 14.3125 -11.5 14.3125 -11.5 12.3125 C-8.86 12.6425 -6.22 12.9725 -3.5 13.3125 C-3.685625 12.013125 -3.87125 10.71375 -4.0625 9.375 C-4.37890625 7.16015625 -4.37890625 7.16015625 -4.5 5.3125 C-4.17 4.9825 -3.84 4.6525 -3.5 4.3125 C-4.82 4.3125 -6.14 4.3125 -7.5 4.3125 C-7.83 4.9725 -8.16 5.6325 -8.5 6.3125 C-9.16 6.3125 -9.82 6.3125 -10.5 6.3125 C-10.83 5.3225 -11.16 4.3325 -11.5 3.3125 C-8.21278993 -0.55431728 -4.77769566 -0.0997015 0 0 Z " fill="#272727" transform="translate(648.5,292.6875)"/>
<path d="M0 0 C1.34789347 0.98028616 2.68351617 1.97791972 4 3 C6.64934822 3.71433121 6.64934822 3.71433121 9 4 C9 4.66 9 5.32 9 6 C4.43562277 5.08280836 0.09106833 4.07437925 -4.25 2.375 C-15.55482278 -1.45215355 -27.26772908 1.25034782 -37.72265625 6.3203125 C-47.2659046 11.71881156 -54.43296562 18.56878882 -60 28 C-61.1171875 24.28125 -61.1171875 24.28125 -60.0625 21.75 C-59.711875 21.1725 -59.36125 20.595 -59 20 C-58.01 20 -57.02 20 -56 20 C-55.9175 19.2575 -55.835 18.515 -55.75 17.75 C-54.84636905 14.43668651 -53.66817101 13.11884168 -51 11 C-50.01 11 -49.02 11 -48 11 C-48 10.01 -48 9.02 -48 8 C-46.02 7.67 -44.04 7.34 -42 7 C-42 6.34 -42 5.68 -42 5 C-40.783125 4.566875 -39.56625 4.13375 -38.3125 3.6875 C-35.81009967 2.75841266 -33.77613889 1.86008681 -31.5 0.4375 C-21.87568433 -5.09648151 -9.99683382 -3.88056009 0 0 Z " fill="#FDFAD9" transform="translate(874,316)"/>
<path d="M0 0 C0.33 0 0.66 0 1 0 C3.93321951 15.42921158 1.83868652 29.5625402 -6.03515625 43.2265625 C-11.58399256 51.05891595 -18.4338475 57.63961191 -27 62 C-27.66 62 -28.32 62 -29 62 C-27.85900474 58.57701423 -26.99914379 57.85241234 -24 56 C-23.01 56 -22.02 56 -21 56 C-21 55.34 -21 54.68 -21 54 C-20.34 54 -19.68 54 -19 54 C-18.34 52.68 -17.68 51.36 -17 50 C-16.01 50 -15.02 50 -14 50 C-13.9175 49.38125 -13.835 48.7625 -13.75 48.125 C-13.37875 47.073125 -13.37875 47.073125 -13 46 C-12.34 45.71125 -11.68 45.4225 -11 45.125 C-10.34 44.75375 -9.68 44.3825 -9 44 C-8.32198966 41.09926819 -8.32198966 41.09926819 -8 38 C-6.9375 35.625 -6.9375 35.625 -6 34 C-5.34 34 -4.68 34 -4 34 C-1.54152539 22.65081534 -0.3894125 11.60180678 0 0 Z " fill="#C1AC5C" transform="translate(891,455)"/>
<path d="M0 0 C0.495 0.99 0.495 0.99 1 2 C-3.90628927 8.52247868 -9.20145139 14.39223875 -15.04980469 20.06347656 C-17.88637796 22.75274626 -17.88637796 22.75274626 -20 26 C-21.03125 26.556875 -22.0625 27.11375 -23.125 27.6875 C-27.84743378 30.27313006 -32.55923486 34.11846972 -35 39 C-33.02 39 -31.04 39 -29 39 C-28.67 39.66 -28.34 40.32 -28 41 C-26.00428677 41.67939174 -24.00405227 42.34561559 -22 43 C-21.34 43.66 -20.68 44.32 -20 45 C-21.546875 45.71484375 -21.546875 45.71484375 -24 46 C-26.53857885 44.94608774 -28.84495527 43.86034426 -31.25 42.5625 C-31.8996875 42.22412109 -32.549375 41.88574219 -33.21875 41.53710938 C-34.81814494 40.70213113 -36.40985859 39.85246886 -38 39 C-36.91208498 35.73625493 -36.31499736 35.20598017 -33.7421875 33.12109375 C-29.90691666 29.86855817 -26.34961573 26.42321831 -22.8203125 22.84765625 C-22.27727478 22.29894867 -21.73423706 21.75024109 -21.17474365 21.18490601 C-18.90983099 18.89291656 -16.64918155 16.59680174 -14.39257812 14.29663086 C-12.7269587 12.60099814 -11.05532413 10.91148699 -9.3828125 9.22265625 C-8.61567429 8.4353286 -8.61567429 8.4353286 -7.83303833 7.63209534 C-6.59282171 6.38304841 -5.30066105 5.18597483 -4 4 C-3.34 4 -2.68 4 -2 4 C-1.34 2.68 -0.68 1.36 0 0 Z " fill="#BEAB59" transform="translate(771,157)"/>
<path d="M0 0 C2.04119788 1.61594832 4.04072937 3.2856382 6 5 C6 5.66 6 6.32 6 7 C5.04915527 7.45270264 5.04915527 7.45270264 4.07910156 7.91455078 C-2.02823837 10.82402275 -8.12918897 13.74650106 -14.22705078 16.67578125 C-16.40420555 17.71547904 -18.58627517 18.74018679 -20.77734375 19.75 C-31.18161793 24.66584498 -40.24026377 31.50254237 -48 40 C-48.66 39.01 -49.32 38.02 -50 37 C-49.34 36.01 -48.68 35.02 -48 34 C-47.01 34 -46.02 34 -45 34 C-44.773125 33.360625 -44.54625 32.72125 -44.3125 32.0625 C-43 30 -43 30 -40.375 29.25 C-39.59125 29.1675 -38.8075 29.085 -38 29 C-38 28.01 -38 27.02 -38 26 C-36.02 25.34 -34.04 24.68 -32 24 C-32 23.34 -32 22.68 -32 22 C-29.36 21.34 -26.72 20.68 -24 20 C-24 19.34 -24 18.68 -24 18 C-19.10029917 15.5021133 -14.16104798 13.09769267 -9.1875 10.75 C-8.08792969 10.22921875 -6.98835937 9.7084375 -5.85546875 9.171875 C-3 8 -3 8 0 8 C0 7.34 0 6.68 0 6 C0.66 6 1.32 6 2 6 C2 5.01 2 4.02 2 3 C1.34 3 0.68 3 0 3 C0 2.01 0 1.02 0 0 Z " fill="#BEAC5B" transform="translate(659,189)"/>
<path d="M0 0 C2.46324069 3.69486103 2.38991688 5.63293092 2 10 C0.9375 11.9375 0.9375 11.9375 -1 13 C-4.38318857 13.36248449 -6.86784865 13.58433618 -9.9375 12 C-11.66149757 8.75482811 -11.65498416 5.58008387 -11 2 C-7.94917282 -2.02709188 -4.54879972 -1.17931845 0 0 Z " fill="#090908" transform="translate(765,231)"/>
<path d="M0 0 C0.99 0.33 1.98 0.66 3 1 C-1.0415905 5.93075896 -5.34009839 10.34772184 -10.0625 14.625 C-11.26256356 15.72042938 -12.46179662 16.81676935 -13.66015625 17.9140625 C-14.18230713 18.3879541 -14.70445801 18.8618457 -15.24243164 19.35009766 C-17.54839191 21.51479824 -19.77043009 23.75679678 -22 26 C-28.66666667 32.66666667 -35.33333333 39.33333333 -42 46 C-42.33 44.68 -42.66 43.36 -43 42 C-42.01 42 -41.02 42 -40 42 C-40 41.01 -40 40.02 -40 39 C-39.34 39 -38.68 39 -38 39 C-38 38.34 -38 37.68 -38 37 C-37.34 37 -36.68 37 -36 37 C-36 36.34 -36 35.68 -36 35 C-35.34 35 -34.68 35 -34 35 C-33.34 33.68 -32.68 32.36 -32 31 C-31.01 31 -30.02 31 -29 31 C-29 30.01 -29 29.02 -29 28 C-28.01 28 -27.02 28 -26 28 C-25.9071875 27.13375 -25.9071875 27.13375 -25.8125 26.25 C-24.66615826 23.07551517 -22.74043158 21.87151425 -20 20 C-19.34 20 -18.68 20 -18 20 C-18 19.34 -18 18.68 -18 18 C-17.34 18 -16.68 18 -16 18 C-16 17.01 -16 16.02 -16 15 C-15.01 15 -14.02 15 -13 15 C-13 14.01 -13 13.02 -13 12 C-12.01 12 -11.02 12 -10 12 C-10 11.01 -10 10.02 -10 9 C-5.77142857 5 -5.77142857 5 -2 5 C-1.855625 4.360625 -1.71125 3.72125 -1.5625 3.0625 C-1 1 -1 1 0 0 Z " fill="#FDFADD" transform="translate(787,138)"/>
<path d="M0 0 C0.75418213 0.00870117 1.50836426 0.01740234 2.28540039 0.02636719 C7.95903763 0.1755608 12.59475633 0.8425996 17.75 3.375 C18.97265625 5.484375 18.97265625 5.484375 19.75 7.375 C16.94009577 6.26806803 14.25748918 5.12391605 11.5625 3.75 C5.83130042 1.30801061 -0.49312549 1.57702496 -6.375 3.4375 C-15.89879652 7.58495978 -21.24362481 15.7384779 -25.3984375 24.91015625 C-27.64491313 31.41256967 -26.11612639 37.96019054 -24.25 44.375 C-25.24 44.045 -26.23 43.715 -27.25 43.375 C-28.76418405 39.79522384 -28.41856058 35.75947589 -28.4375 31.9375 C-28.45876953 29.99037109 -28.45876953 29.99037109 -28.48046875 28.00390625 C-28.26557702 24.62027201 -27.72166218 22.39394337 -26.25 19.375 C-25.59 19.375 -24.93 19.375 -24.25 19.375 C-24.25 18.385 -24.25 17.395 -24.25 16.375 C-23.59 16.375 -22.93 16.375 -22.25 16.375 C-22.064375 15.2303125 -22.064375 15.2303125 -21.875 14.0625 C-21.25 11.375 -21.25 11.375 -19.25 8.375 C-18.59 8.375 -17.93 8.375 -17.25 8.375 C-17.25 7.715 -17.25 7.055 -17.25 6.375 C-15.93 6.045 -14.61 5.715 -13.25 5.375 C-13.25 4.715 -13.25 4.055 -13.25 3.375 C-9.11285888 0.03596878 -5.11011301 -0.0966186 0 0 Z " fill="#BFA954" transform="translate(856.25,338.625)"/>
<path d="M0 0 C0 0.66 0 1.32 0 2 C-0.9178125 2.37511719 -1.835625 2.75023437 -2.78125 3.13671875 C-8.91896646 5.68364524 -14.87608889 8.1916549 -20.3515625 12.01953125 C-22 13 -22 13 -24.0859375 13.38671875 C-26.14367926 13.81195675 -26.14367926 13.81195675 -27.00390625 15.703125 C-27.49697266 16.84007812 -27.49697266 16.84007812 -28 18 C-29.27665227 19.9407283 -30.59227237 21.85615999 -31.9375 23.75 C-32.62714844 24.73484375 -33.31679688 25.7196875 -34.02734375 26.734375 C-34.67832031 27.48203125 -35.32929687 28.2296875 -36 29 C-36.99 29 -37.98 29 -39 29 C-34.23721928 15.82143198 -23.24019427 8.25887188 -11.171875 2.3828125 C-7.02618363 0.57545444 -4.54190609 0 0 0 Z " fill="#C3AB57" transform="translate(852,317)"/>
<path d="M0 0 C0.66 0 1.32 0 2 0 C2 36.96 2 73.92 2 112 C-0.64 110.02 -3.28 108.04 -6 106 C-4 105 -4 105 0 106 C0.33 72.34 0.66 38.68 1 4 C0.01 4 -0.98 4 -2 4 C-2 3.34 -2 2.68 -2 2 C-1.34 2 -0.68 2 0 2 C0 1.34 0 0.68 0 0 Z " fill="#B8AA67" transform="translate(800,129)"/>
<path d="M0 0 C4.73469665 5.59555058 5.30908152 11.27996885 5.1875 18.3125 C5.18685547 19.04017578 5.18621094 19.76785156 5.18554688 20.51757812 C5.14074248 25.85925752 5.14074248 25.85925752 4 27 C2.43827255 27.08685603 0.87270656 27.10702219 -0.69140625 27.09765625 C-1.63564453 27.09443359 -2.57988281 27.09121094 -3.55273438 27.08789062 C-4.54595703 27.07951172 -5.53917969 27.07113281 -6.5625 27.0625 C-7.55958984 27.05798828 -8.55667969 27.05347656 -9.58398438 27.04882812 C-12.05604849 27.03700007 -14.52799518 27.02051849 -17 27 C-17.18175781 26.07058594 -17.36351562 25.14117187 -17.55078125 24.18359375 C-18.84925594 17.79776184 -20.07804288 11.84391424 -23 6 C-19.49053141 7.16982286 -18.53533728 8.55850169 -16.78515625 11.74609375 C-15.26891734 16.09868008 -15.77508237 20.44541798 -16 25 C-9.73 25 -3.46 25 3 25 C2.690625 22.545625 2.38125 20.09125 2.0625 17.5625 C1.32825883 11.71290683 0.62808336 5.86211136 0 0 Z " fill="#BAA654" transform="translate(904,344)"/>
<path d="M0 0 C1.32 0 2.64 0 4 0 C4 0.66 4 1.32 4 2 C4.8353125 2.3403125 4.8353125 2.3403125 5.6875 2.6875 C8.67961603 4.38572802 10.61600535 6.50764196 13 9 C14.33062607 10.33603511 15.66415805 11.66918001 17 13 C18.33333333 14.33333333 19.66666667 15.66666667 21 17 C21.80050781 17.79921875 22.60101562 18.5984375 23.42578125 19.421875 C25.15755196 21.15627359 26.88403638 22.89596491 28.60546875 24.640625 C29.45753906 25.50171875 30.30960938 26.3628125 31.1875 27.25 C32.04730469 28.12140625 32.90710938 28.9928125 33.79296875 29.890625 C35.81431066 32.02994238 35.81431066 32.02994238 38 33 C37.67 34.32 37.34 35.64 37 37 C24.66666667 24.66666667 12.33333333 12.33333333 0 0 Z " fill="#FBF7D4" transform="translate(627,157)"/>
<path d="M0 0 C2.31 0 4.62 0 7 0 C6.69249629 2.14655501 6.3788634 4.29223285 6.0625 6.4375 C5.88847656 7.63246094 5.71445312 8.82742188 5.53515625 10.05859375 C5 13 5 13 4 14 C2.31391034 14.07205511 0.62499341 14.08386068 -1.0625 14.0625 C-1.98160156 14.05347656 -2.90070312 14.04445313 -3.84765625 14.03515625 C-4.55792969 14.02355469 -5.26820313 14.01195312 -6 14 C-4.16508812 9.25981099 -2.08058541 4.63586749 0 0 Z " fill="#151615" transform="translate(667,552)"/>
<path d="M0 0 C4.48800297 3.84685969 7.42247559 8.6036707 8.41796875 14.45800781 C8.607783 17.11035906 8.65684989 19.71613313 8.625 22.375 C8.61879639 23.3023999 8.61259277 24.2297998 8.60620117 25.18530273 C8.38186667 32.35958334 7.07179317 37.66689664 2 43 C-0.875 45.625 -0.875 45.625 -3 47 C-3.33 46.34 -3.66 45.68 -4 45 C-3.34 45 -2.68 45 -2 45 C-1.9175 44.2575 -1.835 43.515 -1.75 42.75 C-0.85190201 39.45697405 0.38416074 38.14023212 3 36 C3.66 36 4.32 36 5 36 C5 27.09 5 18.18 5 9 C4.34 9 3.68 9 3 9 C2.01 6.03 1.02 3.06 0 0 Z " fill="#F7F3D0" transform="translate(860,445)"/>
<path d="M0 0 C2.97 0 5.94 0 9 0 C8.40651139 1.77444057 7.79977999 3.54445553 7.1875 5.3125 C6.68283203 6.79169922 6.68283203 6.79169922 6.16796875 8.30078125 C5.04041497 10.90659953 4.26523198 12.32372834 2 14 C-1.1875 14.1875 -1.1875 14.1875 -4 14 C-3.21609249 9.13977346 -1.59408927 4.64365136 0 0 Z " fill="#111211" transform="translate(842,552)"/>
<path d="M0 0 C0.66 0 1.32 0 2 0 C3.7665833 5.29974989 3.51514844 10.94948386 3.75 16.5 C3.85248047 18.37365234 3.85248047 18.37365234 3.95703125 20.28515625 C4.03244141 22.07759766 4.03244141 22.07759766 4.109375 23.90625 C4.16061523 25.00259766 4.21185547 26.09894531 4.26464844 27.22851562 C4 30 4 30 2.57910156 31.72851562 C2.05799805 32.14810547 1.53689453 32.56769531 1 33 C0.54625 33.804375 0.0925 34.60875 -0.375 35.4375 C-2.64086301 39.01059167 -5.24451961 41.29780784 -9.1875 42.875 C-9.785625 42.91625 -10.38375 42.9575 -11 43 C-11.66 42.34 -12.32 41.68 -13 41 C-12.49210938 40.75507813 -11.98421875 40.51015625 -11.4609375 40.2578125 C-5.19610661 36.85556351 -1.13502057 32.90927321 1 26 C1.91543887 17.60257645 2.0883848 8.23272354 0 0 Z " fill="#C1AC59" transform="translate(866,452)"/>
<path d="M0 0 C0 0.66 0 1.32 0 2 C-0.969375 2.2475 -1.93875 2.495 -2.9375 2.75 C-6.10685022 3.63994159 -6.10685022 3.63994159 -6.9375 6 C-7.16078447 8.07420822 -7.16078447 8.07420822 -6 10 C-5.79533366 11.97559868 -5.63450941 13.95588811 -5.5 15.9375 C-5.2759354 19.23044938 -5.04612306 21.86163082 -4 25 C0.02992782 24.44687265 4.02022924 23.8441938 8 23 C3.06741473 27.01914355 -0.67728483 28.11321666 -7 28 C-7.19916016 26.67935547 -7.19916016 26.67935547 -7.40234375 25.33203125 C-7.57894531 24.17058594 -7.75554688 23.00914062 -7.9375 21.8125 C-8.11152344 20.66394531 -8.28554688 19.51539063 -8.46484375 18.33203125 C-8.78827764 16.31824211 -9.14466171 14.30883849 -9.5625 12.3125 C-10.15258944 9.19345582 -10.06206464 6.1652968 -10 3 C-8.70990357 2.49596232 -7.41786211 1.99690074 -6.125 1.5 C-5.04605469 1.08234375 -5.04605469 1.08234375 -3.9453125 0.65625 C-2 0 -2 0 0 0 Z " fill="#B6A75E" transform="translate(853,494)"/>
<path d="M0 0 C0 0.66 0 1.32 0 2 C-1.546875 2.79083984 -1.546875 2.79083984 -3.125 3.59765625 C-7.20648836 5.93096184 -9.96907331 8.8919641 -13 12.4375 C-16.96173666 17.04010583 -20.78715957 20.80959413 -26 24 C-26.99 23.67 -27.98 23.34 -29 23 C-28.55720703 22.5875 -28.11441406 22.175 -27.65820312 21.75 C-25.60408178 19.83481507 -23.55209619 17.91735461 -21.5 16 C-20.76547607 15.31607178 -20.03095215 14.63214355 -19.27416992 13.92749023 C-14.90190494 9.84053119 -10.65676401 5.69769892 -6.67578125 1.22265625 C-4.40206934 -0.43625244 -2.74369865 -0.22903106 0 0 Z " fill="#BFAC59" transform="translate(801,133)"/>
<path d="M0 0 C3.74584352 5.61876528 3.18318262 11.18758632 3.1875 17.75 C3.19974609 18.71421875 3.21199219 19.6784375 3.22460938 20.671875 C3.23643439 26.47401767 2.66717019 31.43837295 1 37 C0.67 37 0.34 37 0 37 C0 24.79 0 12.58 0 0 Z " fill="#BEA548" transform="translate(888,444)"/>
<path d="M0 0 C0.66 0 1.32 0 2 0 C0.62688759 4.46261535 -1.13345573 8.62667837 -3.09765625 12.8515625 C-6.76340591 21.57953787 -5.4974878 32.82788721 -4 42 C-6.41067135 40.17271671 -6.9620003 39.26181907 -7.40405273 36.21606445 C-7.43608277 32.58078725 -7.45772746 28.94792576 -7.4375 25.3125 C-7.45748047 24.05759766 -7.47746094 22.80269531 -7.49804688 21.50976562 C-7.494196 14.19694701 -6.94656959 9.21291649 -3 3 C-2.01 3 -1.02 3 0 3 C0 2.01 0 1.02 0 0 Z " fill="#FCF9D6" transform="translate(811,344)"/>
<path d="M0 0 C7.20714514 6.44849829 7.325452 12.78117727 8 22 C15.26 21.67 22.52 21.34 30 21 C30 21.66 30 22.32 30 23 C26.20834926 23.0289337 22.41672673 23.04677601 18.625 23.0625 C17.54476562 23.07087891 16.46453125 23.07925781 15.3515625 23.08789062 C13.8046875 23.09272461 13.8046875 23.09272461 12.2265625 23.09765625 C11.27346191 23.10289307 10.32036133 23.10812988 9.33837891 23.11352539 C7 23 7 23 5 22 C4.35740119 19.52982661 3.83126126 17.12978118 3.375 14.625 C3.2409375 13.93921875 3.106875 13.2534375 2.96875 12.546875 C2.41661789 9.65099843 2 6.95439007 2 4 C1.34 4 0.68 4 0 4 C0 2.68 0 1.36 0 0 Z " fill="#F7F2CA" transform="translate(879,349)"/>
<path d="M0 0 C0.66 0.33 1.32 0.66 2 1 C0.8125 2.9375 0.8125 2.9375 -1 5 C-1.845625 5.165 -2.69125 5.33 -3.5625 5.5 C-4.366875 5.665 -5.17125 5.83 -6 6 C-6.25007812 6.54269531 -6.50015625 7.08539063 -6.7578125 7.64453125 C-8.6147258 11.1656593 -11.40499348 13.51233585 -14.3125 16.1875 C-15.16618164 17.00637695 -15.16618164 17.00637695 -16.03710938 17.84179688 C-19.22882839 20.79899234 -21.47184709 22.70265412 -26 23 C-25.28199219 22.28585938 -24.56398438 21.57171875 -23.82421875 20.8359375 C-22.01296754 19.02659622 -20.23065551 17.19874721 -18.45703125 15.3515625 C-12.7254696 9.44221238 -6.98757884 4.44112929 0 0 Z " fill="#FCFADC" transform="translate(630,212)"/>
<path d="M0 0 C1.3921875 1.2065625 1.3921875 1.2065625 2.8125 2.4375 C5.96797814 5.15223322 9.19295551 7.76761536 12.4375 10.375 C19.14133649 15.85409713 25.66290532 21.41008431 30 29 C30 29.66 30 30.32 30 31 C28.68 30.34 27.36 29.68 26 29 C26 28.01 26 27.02 26 26 C25.34 26 24.68 26 24 26 C23.7525 25.195625 23.505 24.39125 23.25 23.5625 C22.27761141 20.828919 22.27761141 20.828919 19.875 20.1875 C18.946875 20.0946875 18.946875 20.0946875 18 20 C17.938125 19.38125 17.87625 18.7625 17.8125 18.125 C17.544375 17.42375 17.27625 16.7225 17 16 C15.34302621 15.30959426 13.6744239 14.6469365 12 14 C10.28891311 12.37897032 8.62746694 10.70496537 7 9 C5.13678599 7.45185976 3.25732397 5.93008501 1.35546875 4.4296875 C0 3 0 3 0 0 Z " fill="#C0AD5A" transform="translate(855,407)"/>
<path d="M0 0 C0.66 0 1.32 0 2 0 C6.03004699 11.53840834 7.23008183 26.28746211 3 38 C0.921875 39.32421875 0.921875 39.32421875 -1 40 C-0.67515625 38.9790625 -0.67515625 38.9790625 -0.34375 37.9375 C3.3029156 25.24170125 2.72483115 12.84563254 0 0 Z " fill="#FBF8DE" transform="translate(890,449)"/>
<path d="M0 0 C1.32 0.33 2.64 0.66 4 1 C4 1.66 4 2.32 4 3 C4.721875 3.226875 5.44375 3.45375 6.1875 3.6875 C9.57355877 5.26766076 11.46677659 7.27191325 14 10 C14.66 10.66 15.32 11.32 16 12 C18.33333333 14.33333333 20.66666667 16.66666667 23 19 C23.7425 19.639375 24.485 20.27875 25.25 20.9375 C27.47090625 23.55499665 27.6937722 25.63149425 28 29 C25.51449729 26.6139174 23.23190015 24.11934492 21 21.5 C16.41046202 16.20514342 11.40916667 11.32724766 6.42480469 6.40869141 C4.27370279 4.28191657 2.13701095 2.14092489 0 0 Z " fill="#C1AB58" transform="translate(838,423)"/>
<path d="M0 0 C8.08759864 -0.77160835 14.66886392 0.13327145 22.3125 2.6875 C23.42214111 3.05319092 23.42214111 3.05319092 24.55419922 3.42626953 C29.83445851 5.29495955 34.36789893 7.86626659 39 11 C38.01 11.33 37.02 11.66 36 12 C34.20720421 11.1036021 32.41830488 10.19867137 30.6484375 9.2578125 C27.305945 7.67037506 23.87367283 6.43818009 20.375 5.25 C19.74174805 5.02747559 19.10849609 4.80495117 18.45605469 4.57568359 C14.51643508 3.26419143 11.14226512 2.77058224 7 3 C7 2.34 7 1.68 7 1 C4.69 1 2.38 1 0 1 C0 0.67 0 0.34 0 0 Z " fill="#C0AB5A" transform="translate(852,316)"/>
<path d="M0 0 C-0.66386719 0.43570312 -1.32773437 0.87140625 -2.01171875 1.3203125 C-7.19517969 4.81631097 -11.28561412 7.97465439 -15 13 C-18.7029703 17.9009901 -18.7029703 17.9009901 -22 19 C-19.35410756 10.53314418 -13.25222649 4.72048076 -6 0 C-3.50907189 -1.24546405 -2.58919267 -0.7767578 0 0 Z " fill="#FBF8D8" transform="translate(854,342)"/>
<path d="M0 0 C1.98 0.66 3.96 1.32 6 2 C6 2.99 6 3.98 6 5 C6.639375 5.103125 7.27875 5.20625 7.9375 5.3125 C8.618125 5.539375 9.29875 5.76625 10 6 C10.33 6.99 10.66 7.98 11 9 C11.515625 9.495 12.03125 9.99 12.5625 10.5 C14 12 14 12 14 15 C14.66 15 15.32 15 16 15 C18.27678571 23.03571429 18.27678571 23.03571429 17 27 C16.56300781 25.83984375 16.56300781 25.83984375 16.1171875 24.65625 C13.48364358 17.96472961 10.66738557 12.46282973 6 7 C5.43410156 6.32582031 4.86820313 5.65164063 4.28515625 4.95703125 C2.87223418 3.29144547 1.43827488 1.64374272 0 0 Z " fill="#FDFADA" transform="translate(891,327)"/>
<path d="M0 0 C2.3288148 0.40151979 3.68374349 0.68194658 5.375 2.3828125 C7.72669982 4.72320607 10.49783775 6.16361427 13.35546875 7.81640625 C13.89816406 8.20699219 14.44085937 8.59757813 15 9 C15 9.66 15 10.32 15 11 C15.8353125 11.0928125 15.8353125 11.0928125 16.6875 11.1875 C20.05802012 12.3717368 21.7687468 14.25874607 24 17 C23.63671875 19.16796875 23.63671875 19.16796875 23 21 C22.27296875 20.21496094 21.5459375 19.42992187 20.796875 18.62109375 C14.09898333 11.56382493 7.76077446 6.41145381 -1 2 C-0.67 1.34 -0.34 0.68 0 0 Z " fill="#C0AE60" transform="translate(768,211)"/>
<path d="M0 0 C0 3 0 3 -2 5.5 C-5.08045855 8.06704879 -7.42383027 9.09098286 -11.16015625 10.30859375 C-13.15789264 10.94217611 -13.15789264 10.94217611 -15 12.6875 C-18.20828939 14.79293991 -21.22605454 14.18869727 -25 14 C-20.96526617 11.31017745 -16.54701438 9.64217909 -12.06835938 7.83007812 C-7.30809444 5.82177178 -3.82119368 3.48526456 0 0 Z " fill="#FAF6D3" transform="translate(874,509)"/>
<path d="M0 0 C-0.5625 1.9375 -0.5625 1.9375 -2 4 C-5.625 4.75 -5.625 4.75 -9 5 C-9.33 5.99 -9.66 6.98 -10 8 C-11.92578125 8.984375 -11.92578125 8.984375 -14.3125 9.75 C-15.09238281 10.01296875 -15.87226562 10.2759375 -16.67578125 10.546875 C-19.16921091 11.03298902 -20.6181897 10.80665429 -23 10 C-20.8137775 8.89324381 -18.62609052 7.78955622 -16.4375 6.6875 C-15.82841797 6.37876953 -15.21933594 6.07003906 -14.59179688 5.75195312 C-3.1484375 0 -3.1484375 0 0 0 Z " fill="#F9F5D2" transform="translate(655,201)"/>
<path d="M0 0 C3.71268094 1.54127351 5.98115698 3.80843234 8.75 6.6875 C12.51841576 10.54524117 16.36965005 14.16453606 20.50390625 17.625 C22 19 22 19 23 21 C21.35 20.67 19.7 20.34 18 20 C18 19.34 18 18.68 18 18 C17.34 18 16.68 18 16 18 C15.67 17.01 15.34 16.02 15 15 C14.01 14.67 13.02 14.34 12 14 C10.64172029 12.35360035 9.30745749 10.68704193 8 9 C7.34 8.67 6.68 8.34 6 8 C6 7.34 6 6.68 6 6 C5.34 6 4.68 6 4 6 C4 5.34 4 4.68 4 4 C3.01 4 2.02 4 1 4 C0.67 2.68 0.34 1.36 0 0 Z " fill="#FAF7D2" transform="translate(777,219)"/>
<path d="M0 0 C1.32 0 2.64 0 4 0 C4.66 0.99 5.32 1.98 6 3 C8.05003955 4.19232613 8.05003955 4.19232613 10 5 C10 5.66 10 6.32 10 7 C10.763125 7.2475 11.52625 7.495 12.3125 7.75 C15.26988327 9.1255271 16.44791483 10.15451051 18 13 C17.67 13.99 17.34 14.98 17 16 C15.10283355 14.27227744 13.20724695 12.54287266 11.3125 10.8125 C10.78205078 10.32974609 10.25160156 9.84699219 9.70507812 9.34960938 C6.38272748 6.312614 3.15941679 3.2063098 0 0 Z " fill="#F9F5D1" transform="translate(851,403)"/>
<path d="M0 0 C0.33 0.66 0.66 1.32 1 2 C1.66 2 2.32 2 3 2 C3.05379226 4.95857409 3.09357093 7.91617721 3.125 10.875 C3.15013672 12.13763672 3.15013672 12.13763672 3.17578125 13.42578125 C3.18222656 14.23144531 3.18867187 15.03710938 3.1953125 15.8671875 C3.20578613 16.61081543 3.21625977 17.35444336 3.22705078 18.12060547 C3 20 3 20 1 22 C-0.17700048 17.37540756 -0.11408412 12.92133538 -0.0625 8.1875 C-0.05573242 7.00510742 -0.05573242 7.00510742 -0.04882812 5.79882812 C-0.03711312 3.86585239 -0.01917998 1.93291607 0 0 Z " fill="#BBA241" transform="translate(869,457)"/>
<path d="M0 0 C0.99 0.495 0.99 0.495 2 1 C4.30946857 9.2102667 5.54169065 17.47338793 5 26 C4.67 26 4.34 26 4 26 C3.87882813 25.33613281 3.75765625 24.67226563 3.6328125 23.98828125 C3.46523438 23.10527344 3.29765625 22.22226562 3.125 21.3125 C2.96257813 20.44238281 2.80015625 19.57226562 2.6328125 18.67578125 C2.07806844 15.98501411 2.07806844 15.98501411 0.9375 13.53125 C-0.1514284 10.59114331 -0.20026423 8.31096549 -0.125 5.1875 C-0.10695313 4.21167969 -0.08890625 3.23585938 -0.0703125 2.23046875 C-0.04710937 1.49441406 -0.02390625 0.75835937 0 0 Z " fill="#A6B9A9" transform="translate(841,496)"/>
<path d="M0 0 C0.66 0.33 1.32 0.66 2 1 C2.33 4.3 2.66 7.6 3 11 C-7.23 11 -17.46 11 -28 11 C-28 10.67 -28 10.34 -28 10 C-18.43 9.67 -8.86 9.34 1 9 C0.67 6.03 0.34 3.06 0 0 Z " fill="#90B4C1" transform="translate(842,511)"/>
<path d="M0 0 C6.73457012 0.84182126 9.30900618 4.17616425 13.3984375 9.39453125 C15.01213129 12.01973553 15.61878263 13.9665989 16 17 C13.36883607 14.47408263 10.94775659 11.81752345 8.5625 9.0625 C5.82237632 5.90309015 3.0016019 2.91064427 0 0 Z " fill="#FBF8D5" transform="translate(869,419)"/>
<path d="M0 0 C4.76790225 5.63479357 5.29126251 11.30244859 5.125 18.375 C5.11597656 19.11105469 5.10695313 19.84710938 5.09765625 20.60546875 C5.07430144 22.4037888 5.03843836 24.20193911 5 26 C4.67 26 4.34 26 4 26 C3.87882813 25.154375 3.75765625 24.30875 3.6328125 23.4375 C2.54404205 15.91128496 2.54404205 15.91128496 0.875 8.5 C0.11818955 5.47275819 -0.19320035 3.09120555 0 0 Z " fill="#C4B36B" transform="translate(904,344)"/>
<path d="M0 0 C0.85851562 0.34417969 0.85851562 0.34417969 1.734375 0.6953125 C0.48760647 1.96931627 -0.7631898 3.23937904 -2.015625 4.5078125 C-2.71171875 5.21550781 -3.4078125 5.92320312 -4.125 6.65234375 C-6.07991145 8.51807129 -8.06901053 10.12700892 -10.265625 11.6953125 C-10.59115653 8.55935871 -10.63778005 7.1704425 -8.65625 4.640625 C-7.59664062 3.73957031 -7.59664062 3.73957031 -6.515625 2.8203125 C-5.81953125 2.20414063 -5.1234375 1.58796875 -4.40625 0.953125 C-2.265625 -0.3046875 -2.265625 -0.3046875 0 0 Z " fill="#F8F4D5" transform="translate(742.265625,184.3046875)"/>
<path d="M0 0 C7.82508541 3.00285445 15.41673302 6.43420048 23 10 C20.29038844 11.05196684 19.16777422 11.05925856 16.37890625 10.07421875 C15.44949219 9.61660156 14.52007813 9.15898437 13.5625 8.6875 C9.4990222 6.71386912 9.4990222 6.71386912 5.33984375 4.95703125 C3 4 3 4 0 2 C0 1.34 0 0.68 0 0 Z " fill="#FBF8D6" transform="translate(733,196)"/>
<path d="M0 0 C4.71751413 3.43091936 8.25869161 7.57770784 12 12 C13.1453592 13.33374065 14.29115647 14.66710528 15.4375 16 C16.283125 16.99 17.12875 17.98 18 19 C15.06120516 17.64763423 12.70767089 16.10057341 10.25 14 C9.63640625 13.484375 9.0228125 12.96875 8.390625 12.4375 C7 11 7 11 7 9 C6.34 9 5.68 9 5 9 C0 3.64285714 0 3.64285714 0 0 Z " fill="#BCA754" transform="translate(836,388)"/>
<path d="M0 0 C2.21087986 1.32851077 2.79734954 2.68965039 3.7421875 5.046875 C0.93228327 3.93994303 -1.75032332 2.79579105 -4.4453125 1.421875 C-11.23436361 -1.49194432 -18.49021072 -0.30707345 -25.2578125 2.046875 C-25.2578125 1.386875 -25.2578125 0.726875 -25.2578125 0.046875 C-17.20038128 -3.53420554 -8.1862543 -2.69876515 0 0 Z " fill="#C2AF61" transform="translate(872.2578125,340.953125)"/>
<path d="M0 0 C1.0662628 3.1846657 1.04185251 4.79854946 -0.4375 7.8125 C-2.9797756 12.6006021 -6.76994203 15.71451809 -11 19 C-11.66 18.67 -12.32 18.34 -13 18 C-12.48050781 17.53851563 -11.96101562 17.07703125 -11.42578125 16.6015625 C-6.08793611 11.6090493 -2.8595599 6.70896745 0 0 Z " fill="#F8F3CD" transform="translate(888,490)"/>
<path d="M0 0 C4.88361222 4.72082515 6.81624484 8.12148058 7.07470703 14.98339844 C7.09797345 17.11499834 7.08755449 19.24344069 7.0625 21.375 C7.05798828 22.11105469 7.05347656 22.84710938 7.04882812 23.60546875 C7.03715142 25.40368158 7.01922011 27.20185197 7 29 C6.67 29 6.34 29 6 29 C5.67 22.4 5.34 15.8 5 9 C4.34 9 3.68 9 3 9 C2.01 6.03 1.02 3.06 0 0 Z " fill="#FFFEE9" transform="translate(860,445)"/>
<path d="M0 0 C8.59361024 -1.02667025 14.74133218 1.45918954 22 6 C23.84765625 7.69921875 23.84765625 7.69921875 25 9 C21.39628581 8.44123595 18.9338657 7.52226757 15.875 5.5625 C10.80363434 2.60349069 5.77175743 1.72281822 0 1 C0 0.67 0 0.34 0 0 Z " fill="#F5F0C4" transform="translate(854,340)"/>
<path d="M0 0 C0.639375 0.66 1.27875 1.32 1.9375 2 C5.7829235 5.85653744 9.90924419 9.40833422 14 13 C13.01 13.33 12.02 13.66 11 14 C10.01 13.34 9.02 12.68 8 12 C8 11.34 8 10.68 8 10 C7.34 10 6.68 10 6 10 C6 9.34 6 8.68 6 8 C5.38125 7.71125 4.7625 7.4225 4.125 7.125 C2 6 2 6 0 4 C0 2.68 0 1.36 0 0 Z " fill="#FAF7D2" transform="translate(819,405)"/>
<path d="M0 0 C5.34589311 4.36981712 10.13691369 8.55805581 13 15 C8.08607135 13.63501982 6.61591282 11.23958284 4 7 C3.34 6.67 2.68 6.34 2 6 C1.27306096 4.02111039 0.60183749 2.02045442 0 0 Z " fill="#C2AC58" transform="translate(891,328)"/>
<path d="M0 0 C4.04301175 1.48518799 7.61146256 3.42877998 11.3125 5.625 C12.38113281 6.25664062 13.44976563 6.88828125 14.55078125 7.5390625 C15.76314453 8.26222656 15.76314453 8.26222656 17 9 C13.2734375 10.1015625 13.2734375 10.1015625 10.8125 9.1875 C9 8 9 8 8 6 C6.2675 5.2884375 6.2675 5.2884375 4.5 4.5625 C2.7675 3.7890625 2.7675 3.7890625 1 3 C0.67 2.01 0.34 1.02 0 0 Z " fill="#FAF6D2" transform="translate(760,209)"/>
<path d="M0 0 C5.27749285 0.53851968 9.25645564 1.77343836 14 4 C14 4.66 14 5.32 14 6 C14.66 6 15.32 6 16 6 C16.33 6.99 16.66 7.98 17 9 C13.10391502 7.51095825 9.40902982 5.75621287 5.6875 3.875 C4.61886719 3.33617187 3.55023437 2.79734375 2.44921875 2.2421875 C1.64097656 1.83226562 0.83273437 1.42234375 0 1 C0 0.67 0 0.34 0 0 Z " fill="#C0AE5E" transform="translate(750,203)"/>
<path d="M0 0 C0.33 0 0.66 0 1 0 C1.66 6.27 2.32 12.54 3 19 C1.68 18.67 0.36 18.34 -1 18 C-0.505 9.09 -0.505 9.09 0 0 Z " fill="#A3C3D0" transform="translate(835,454)"/>
<path d="M0 0 C0.33 0 0.66 0 1 0 C1 6.6 1 13.2 1 20 C-2.0805726 16.9194274 -2.15082622 13.79465384 -2.1875 9.5625 C-2.15778455 5.96098722 -1.67675112 3.2487053 0 0 Z " fill="#F2EBBF" transform="translate(831,361)"/>
<path d="M0 0 C0.99 0.33 1.98 0.66 3 1 C-0.3810038 5.13621084 -3.66590534 8.81316569 -8 12 C-7.25 7.25 -7.25 7.25 -5 5 C-4.01 5 -3.02 5 -2 5 C-1.855625 4.360625 -1.71125 3.72125 -1.5625 3.0625 C-1 1 -1 1 0 0 Z " fill="#F9F5D4" transform="translate(787,138)"/>
<path d="M0 0 C4.52615993 3.67832017 8.39424999 7.41086363 12 12 C11.01 12.495 11.01 12.495 10 13 C10 12.34 10 11.68 10 11 C9.34 11 8.68 11 8 11 C7.34 10.01 6.68 9.02 6 8 C4.7315625 7.319375 4.7315625 7.319375 3.4375 6.625 C1 5 1 5 0.1875 2.3125 C0.0946875 1.1678125 0.0946875 1.1678125 0 0 Z " fill="#C4B05F" transform="translate(637,167)"/>
<path d="M0 0 C0 3.77910478 -0.99703962 4.46106101 -3.5 7.1875 C-4.1496875 7.90292969 -4.799375 8.61835938 -5.46875 9.35546875 C-5.9740625 9.89816406 -6.479375 10.44085938 -7 11 C-8.32 10.67 -9.64 10.34 -11 10 C-5.555 5.05 -5.555 5.05 0 0 Z " fill="#C1AE5D" transform="translate(783,146)"/>
<path d="M0 0 C8.25460123 -0.47622699 8.25460123 -0.47622699 11.25 1.4375 C11.8275 1.953125 12.405 2.46875 13 3 C15.64934822 3.71433121 15.64934822 3.71433121 18 4 C18 4.66 18 5.32 18 6 C11.82777121 4.75971762 5.93317878 3.10396411 0 1 C0 0.67 0 0.34 0 0 Z " fill="#F5EFC2" transform="translate(865,316)"/>
<path d="M0 0 C2.33944736 0.28730055 4.6739143 0.61936779 7 1 C7.33 2.32 7.66 3.64 8 5 C5.16032769 5 2.76264289 4.59732819 0 4 C-0.33 3.01 -0.66 2.02 -1 1 C-0.67 0.67 -0.34 0.34 0 0 Z " fill="#141414" transform="translate(652,293)"/>
<path d="M0 0 C0.99 0.33 1.98 0.66 3 1 C1.90033225 2.29549899 0.79508199 3.58626071 -0.3125 4.875 C-0.92738281 5.59429687 -1.54226563 6.31359375 -2.17578125 7.0546875 C-4 9 -4 9 -7 11 C-5.07469586 7.00129139 -3.15703281 3.15703281 0 0 Z " fill="#BEA84C" transform="translate(788,141)"/>
<path d="M0 0 C1.2065625 0.0309375 1.2065625 0.0309375 2.4375 0.0625 C1.4475 0.5575 1.4475 0.5575 0.4375 1.0625 C0.4375 1.7225 0.4375 2.3825 0.4375 3.0625 C-1.3125 4.5703125 -1.3125 4.5703125 -3.5625 6.1875 C-4.305 6.72632813 -5.0475 7.26515625 -5.8125 7.8203125 C-6.39 8.23023438 -6.9675 8.64015625 -7.5625 9.0625 C-7.8925 8.0725 -8.2225 7.0825 -8.5625 6.0625 C-2.5625 0.0625 -2.5625 0.0625 0 0 Z " fill="#FBF9DA" transform="translate(797.5625,129.9375)"/>
<path d="M0 0 C-1.75 3.875 -1.75 3.875 -4 5 C-5.99960012 5.039992 -8.00047242 5.04346799 -10 5 C-9 2 -9 2 -6.6875 0.8125 C-4 0 -4 0 0 0 Z " fill="#1B1B1B" transform="translate(661,305)"/>
<path d="M0 0 C0.66 0.33 1.32 0.66 2 1 C0.29374499 3.78388975 -0.47626739 4.85384206 -3.6875 5.75 C-4.8321875 5.87375 -4.8321875 5.87375 -6 6 C-6.33 6.99 -6.66 7.98 -7 9 C-8.32 8.67 -9.64 8.34 -11 8 C-7.37 5.36 -3.74 2.72 0 0 Z " fill="#F9F5D1" transform="translate(630,212)"/>
<path d="M0 0 C0.33 0.66 0.66 1.32 1 2 C-4.0940919 9.68490153 -4.0940919 9.68490153 -7.875 11 C-8.57625 11 -9.2775 11 -10 11 C-9.04882866 9.8274869 -8.08882991 8.66212985 -7.125 7.5 C-6.32449219 6.52546875 -6.32449219 6.52546875 -5.5078125 5.53125 C-5.01023437 5.0259375 -4.51265625 4.520625 -4 4 C-3.34 4 -2.68 4 -2 4 C-1.34 2.68 -0.68 1.36 0 0 Z " fill="#C3B368" transform="translate(771,157)"/>
<path d="M0 0 C-1.60149886 0.67305018 -3.20631029 1.33822227 -4.8125 2 C-6.15248047 2.556875 -6.15248047 2.556875 -7.51953125 3.125 C-10 4 -10 4 -13 4 C-12.67 3.01 -12.34 2.02 -12 1 C-10.0390625 0.234375 -10.0390625 0.234375 -7.625 -0.25 C-6.83351563 -0.42015625 -6.04203125 -0.5903125 -5.2265625 -0.765625 C-3 -1 -3 -1 0 0 Z " fill="#F9F7D8" transform="translate(855,493)"/>
<path d="M0 0 C0.33 0.66 0.66 1.32 1 2 C5.02992782 1.44687265 9.02022924 0.8441938 13 0 C10.14978125 2.32240046 7.53644909 3.93906527 4 5 C1.6875 4.625 1.6875 4.625 0 4 C0 2.68 0 1.36 0 0 Z " fill="#BDA956" transform="translate(848,517)"/>
<path d="M0 0 C2.32579101 3.48868651 2.41865457 4.89718519 2 9 C0.48046875 11.19140625 0.48046875 11.19140625 -1 13 C-1.02708567 11.39592672 -1.04643483 9.7917215 -1.0625 8.1875 C-1.07410156 7.29417969 -1.08570313 6.40085937 -1.09765625 5.48046875 C-1 3 -1 3 0 0 Z " fill="#CACACA" transform="translate(610,271)"/>
<path d="M0 0 C3.68754757 0.49831724 5.60490662 1.10067643 8 4 C7.67 4.99 7.34 5.98 7 7 C5.2925002 5.71937515 3.62626404 4.38232443 2 3 C2 2.34 2 1.68 2 1 C1.34 0.67 0.68 0.34 0 0 Z " fill="#F7F3D4" transform="translate(597,128)"/>
<path d="M0 0 C0.33 0 0.66 0 1 0 C1 3.3 1 6.6 1 10 C-0.98 10.99 -0.98 10.99 -3 12 C-2.01 8.04 -1.02 4.08 0 0 Z " fill="#F8F4D4" transform="translate(892,477)"/>
<path d="M0 0 C3.35595828 0.59927826 5.37801226 1.84622436 8 4 C7.67 5.32 7.34 6.64 7 8 C5.83035398 6.8572081 4.66435444 5.71068285 3.5 4.5625 C2.8503125 3.92441406 2.200625 3.28632813 1.53125 2.62890625 C0 1 0 1 0 0 Z " fill="#F9F4D0" transform="translate(843,395)"/>
<path d="M0 0 C1.78821774 2.68232661 3.20142604 5.30288961 4.625 8.1875 C5.07101562 9.08855469 5.51703125 9.98960937 5.9765625 10.91796875 C6.31429687 11.60503906 6.65203125 12.29210937 7 13 C5 13 5 13 2.9375 11 C0.45202508 7.1515227 0.30733252 4.53315471 0 0 Z " fill="#F8F3C7" transform="translate(807,386)"/>
<path d="M0 0 C0.66 0.33 1.32 0.66 2 1 C2.4140625 3.28515625 2.4140625 3.28515625 2.625 6.0625 C2.69976563 6.98160156 2.77453125 7.90070312 2.8515625 8.84765625 C2.90054688 9.55792969 2.94953125 10.26820313 3 11 C1.35 10.67 -0.3 10.34 -2 10 C-1.01 9.67 -0.02 9.34 1 9 C0.67 6.03 0.34 3.06 0 0 Z " fill="#98BBC3" transform="translate(842,511)"/>
<path d="M0 0 C2.4375 1 2.4375 1 4 2 C0.86567988 3.00746004 -0.86183451 2.78454137 -4 2 C-6.18703385 2.37907282 -6.18703385 2.37907282 -8 3 C-8.33 2.34 -8.66 1.68 -9 1 C-5.97562661 -0.5121867 -3.33758466 -0.17263369 0 0 Z " fill="#FEFFE9" transform="translate(861,341)"/>
<path d="M0 0 C3.84685385 1.24762828 6.02929405 2.3870391 8 6 C7.67 6.99 7.34 7.98 7 9 C5.83037314 7.69013727 4.66437056 6.3770374 3.5 5.0625 C2.8503125 4.33160156 2.200625 3.60070312 1.53125 2.84765625 C0 1 0 1 0 0 Z " fill="#C1AE5E" transform="translate(817,402)"/>
<path d="M0 0 C3.08089673 2.77280706 4.68775452 5.06326356 6 9 C5.01 9 4.02 9 3 9 C2.01 6.03 1.02 3.06 0 0 Z " fill="#F7F2C9" transform="translate(860,445)"/>
<path d="M0 0 C1.31611677 0.95336021 2.62778961 1.91285774 3.9375 2.875 C4.66839844 3.40867187 5.39929688 3.94234375 6.15234375 4.4921875 C8 6 8 6 9 8 C5.41209425 7.70100785 4.21833224 7.23013399 1.6875 4.5625 C0 2 0 2 0 0 Z " fill="#FBF7CF" transform="translate(835,421)"/>
<path d="M0 0 C1.98 0.66 3.96 1.32 6 2 C6 2.99 6 3.98 6 5 C6.66 5.33 7.32 5.66 8 6 C5 6 5 6 3.61328125 4.6875 C2.40885417 3.125 1.20442708 1.5625 0 0 Z " fill="#F5EFC3" transform="translate(891,327)"/>
<path d="M0 0 C4.2742558 1.5830577 6.26531794 4.50568404 9 8 C4.125 6.25 4.125 6.25 3 4 C2.01 3.67 1.02 3.34 0 3 C0 2.01 0 1.02 0 0 Z " fill="#C8B569" transform="translate(628,159)"/>
<path d="M0 0 C4.875 3.625 4.875 3.625 6 7 C3.5625 6.3125 3.5625 6.3125 1 5 C0.1875 2.375 0.1875 2.375 0 0 Z " fill="#C3B05F" transform="translate(836,388)"/>
<path d="M0 0 C1.32 0.33 2.64 0.66 4 1 C4 1.99 4 2.98 4 4 C2.02 4 0.04 4 -2 4 C-1.34 2.68 -0.68 1.36 0 0 Z " fill="#6794A7" transform="translate(676,388)"/>
<path d="M0 0 C4.40114397 0.50298788 6.71195019 2.08772731 10 5 C6.05140217 4.4359146 3.29120954 3.2568294 0 1 C0 0.67 0 0.34 0 0 Z " fill="#FBF8D5" transform="translate(869,344)"/>
<path d="M0 0 C1.14926266 0.95421808 2.29430541 1.91352045 3.4375 2.875 C4.07558594 3.40867188 4.71367188 3.94234375 5.37109375 4.4921875 C7 6 7 6 8 8 C6.68 8 5.36 8 4 8 C2.09080647 5.38369776 1.02455574 3.07366722 0 0 Z " fill="#BFAA57" transform="translate(610,141)"/>
<path d="M0 0 C0.66 0 1.32 0 2 0 C2 1.98 2 3.96 2 6 C1.01 6 0.02 6 -1 6 C-1.042721 4.33388095 -1.04063832 2.66617115 -1 1 C-0.67 0.67 -0.34 0.34 0 0 Z " fill="#D8D7D7" transform="translate(758,574)"/>
<path d="M0 0 C0.66 0 1.32 0 2 0 C0.54744301 3.82946843 -1.42895561 5.12050295 -5 7 C-5 6.34 -5 5.68 -5 5 C-4.34 5 -3.68 5 -3 5 C-3 4.01 -3 3.02 -3 2 C-2.01 2 -1.02 2 0 2 C0 1.34 0 0.68 0 0 Z " fill="#F8F3C7" transform="translate(861,485)"/>
<path d="M0 0 C2.5722047 1.28610235 3.00974907 2.33393981 4 5 C3.625 7.25 3.625 7.25 3 9 C0.9375 6.1875 0.9375 6.1875 -1 3 C-0.67 2.01 -0.34 1.02 0 0 Z " fill="#FAF5CE" transform="translate(899,332)"/>
<path d="M0 0 C1.32 0 2.64 0 4 0 C4 0.66 4 1.32 4 2 C4.66 2 5.32 2 6 2 C5.67 3.32 5.34 4.64 5 6 C3.35 4.02 1.7 2.04 0 0 Z " fill="#F5EEC5" transform="translate(621,151)"/>
</svg>
