<svg xmlns="http://www.w3.org/2000/svg" width="1387" height="756" viewBox="0 0 1387 756">
<g>
<path d="M 653.35 321.05 C643.07,324.59 627.99,322.70 617.54,316.58 C611.21,312.86 597.49,299.20 592.67,291.79 C588.81,285.88 583.46,270.84 582.41,263.00 C581.92,259.31 582.21,258.00 583.99,255.73 C588.05,250.58 591.19,249.71 607.56,249.21 C620.45,248.81 623.90,249.05 631.56,250.85 C644.39,253.86 655.77,257.97 669.50,264.51 C679.19,269.14 682.76,270.33 688.03,270.74 C694.12,271.20 695.15,270.96 703.53,267.00 C708.46,264.67 715.34,261.43 718.81,259.79 C722.28,258.16 731.28,255.22 738.81,253.28 C750.85,250.16 754.40,249.68 768.28,249.25 C787.45,248.65 792.32,249.62 793.97,254.33 C796.24,260.86 792.69,277.15 786.63,288.00 C772.55,313.19 756.54,324.10 735.63,322.74 C718.86,321.65 709.31,315.12 701.58,299.45 C699.42,295.08 697.09,290.38 696.39,289.00 C695.26,286.77 694.51,286.50 689.31,286.50 L 683.50 286.50 L 679.00 295.14 C674.15,304.45 666.18,314.77 661.76,317.44 C660.25,318.35 656.47,319.98 653.35,321.05 ZM 630.42 314.57 C632.88,315.38 637.87,315.81 643.00,315.66 C654.32,315.32 660.35,312.20 666.46,303.54 C671.50,296.38 673.00,292.35 673.00,285.99 C673.00,281.93 672.46,280.66 669.04,276.79 C663.64,270.65 653.73,265.66 642.00,263.17 C627.08,260.00 622.50,259.79 612.50,261.81 C602.05,263.92 601.04,265.00 601.01,274.07 C600.99,285.10 605.08,293.85 615.44,304.85 C620.70,310.44 623.61,312.33 630.42,314.57 ZM 725.72 314.56 C727.80,315.30 733.10,315.93 737.50,315.96 C744.28,315.99 746.42,315.56 751.50,313.15 C758.91,309.63 769.20,299.03 773.47,290.52 C776.02,285.44 776.50,283.19 776.84,274.89 C776.85,274.60 776.86,274.31 776.87,274.03 C777.07,269.06 777.18,266.47 775.96,264.95 C774.57,263.21 771.46,262.86 764.81,261.93 C755.34,260.60 739.17,261.76 728.55,264.53 C722.02,266.23 713.54,271.48 709.04,276.60 C705.52,280.62 705.11,285.07 707.46,293.91 C710.09,303.77 716.82,311.39 725.72,314.56 ZM 746.28 582.25 C746.50,584.32 744.93,585.60 743.69,584.35 C743.31,583.98 743.00,582.69 743.00,581.49 C743.00,579.83 742.08,579.04 739.05,578.13 C734.84,576.87 731.00,572.93 731.00,569.87 C731.00,568.32 731.77,568.00 735.44,568.00 C737.88,568.00 740.16,568.45 740.50,569.00 C741.70,570.95 743.00,569.96 743.00,567.10 C743.00,564.73 742.41,563.99 739.78,563.07 C735.57,561.61 731.00,557.17 731.00,554.56 C731.01,550.93 734.89,545.90 739.03,544.16 C741.96,542.93 742.98,541.92 742.99,540.25 C743.01,536.81 746.77,537.20 747.18,540.68 C747.42,542.67 748.24,543.57 750.38,544.13 C754.29,545.17 758.00,548.84 758.00,551.67 C758.00,553.69 757.50,554.00 754.33,554.00 C752.31,554.00 749.83,553.25 748.82,552.34 C746.42,550.17 745.37,551.32 746.83,554.53 C747.51,556.01 749.76,557.83 752.27,558.90 C762.31,563.21 761.12,576.43 750.46,579.12 C746.94,580.00 746.11,580.63 746.28,582.25 ZM 791.00 568.15 L 791.00 579.00 L 788.25 578.88 C782.04,578.62 782.00,578.56 782.00,569.36 C782.00,564.69 781.53,560.00 780.96,558.93 C779.74,556.65 777.14,556.44 774.44,558.42 C772.77,559.64 772.50,561.08 772.50,568.67 L 772.50 577.50 L 764.30 578.10 L 763.65 571.90 C762.83,564.10 762.81,553.66 763.61,551.58 C764.44,549.40 772.00,549.35 772.00,551.52 C772.00,552.87 772.28,552.86 774.41,551.46 C775.99,550.43 778.49,549.99 781.63,550.19 C785.82,550.46 786.72,550.93 788.72,553.90 C790.75,556.92 791.00,558.51 791.00,568.15 ZM 708.00 569.94 L 708.00 577.79 L 703.89 578.18 C701.49,578.41 699.60,578.12 699.36,577.48 C699.13,576.88 699.06,570.57 699.22,563.45 L 699.50 550.50 L 703.75 550.19 C707.09,549.95 708.00,550.22 708.00,551.47 C708.00,552.91 708.21,552.91 710.41,551.46 C712.00,550.43 714.49,549.99 717.66,550.19 C722.28,550.49 722.60,550.70 724.75,554.96 C726.60,558.63 727.00,561.07 727.00,568.65 C727.00,573.73 726.56,578.16 726.02,578.49 C725.48,578.82 723.45,578.80 721.52,578.44 L 718.00 577.78 L 717.99 570.14 C717.97,561.27 716.54,557.63 712.91,557.20 C709.35,556.78 708.00,560.28 708.00,569.94 ZM 676.22 563.25 C674.44,565.29 668.01,565.68 667.98,563.75 C667.98,563.06 669.84,558.34 672.13,553.25 L 676.29 544.00 L 685.63 544.00 L 689.34 551.51 C691.38,555.64 693.33,560.39 693.67,562.08 C694.27,565.11 694.24,565.13 690.39,564.82 C686.77,564.52 686.33,564.13 684.08,559.25 C682.74,556.36 681.32,554.00 680.90,554.00 C680.49,554.00 679.61,555.69 678.95,557.75 C678.29,559.81 677.06,562.29 676.22,563.25 ZM 805.92 559.25 C803.69,564.08 803.20,564.52 799.75,564.81 C797.69,564.98 796.00,564.70 796.00,564.18 C796.00,562.89 800.73,550.42 802.56,546.88 C803.89,544.32 804.57,544.00 808.78,544.02 L 813.50 544.04 L 817.75 553.77 C820.09,559.12 822.01,563.86 822.00,564.31 C822.00,564.76 820.31,564.98 818.25,564.81 C814.82,564.53 814.29,564.06 812.00,559.30 C810.62,556.43 809.24,554.07 808.92,554.05 C808.61,554.02 807.26,556.36 805.92,559.25 ZM 648.25 304.34 C642.24,307.37 628.00,305.35 628.00,301.47 C628.00,299.61 629.93,299.64 632.44,301.53 C635.40,303.77 635.67,303.43 635.58,297.51 C635.52,293.25 635.15,292.01 633.95,292.01 C633.10,292.00 631.86,292.54 631.20,293.20 C630.27,294.13 629.73,294.13 628.79,293.19 C627.85,292.25 627.95,291.62 629.25,290.32 C630.48,289.09 633.14,288.57 639.31,288.33 C646.69,288.04 647.91,288.25 649.52,290.03 C650.93,291.58 651.08,292.32 650.18,293.22 C649.27,294.13 648.72,294.12 647.80,293.20 C647.14,292.54 645.90,292.00 645.05,292.00 C643.84,292.00 643.49,293.22 643.45,297.50 C643.39,303.45 643.62,303.75 646.56,301.53 C647.63,300.72 649.06,300.05 649.75,300.03 C652.06,299.97 651.03,302.93 648.25,304.34 ZM 753.37 238.93 C751.92,240.07 750.45,240.96 750.12,240.92 C740.99,239.75 740.35,227.00 749.42,227.00 C755.92,227.00 758.53,234.87 753.37,238.93 ZM 662.84 550.18 L 661.49 556.50 L 656.74 556.80 C654.13,556.97 652.00,556.75 652.01,556.30 C652.01,555.86 653.12,553.70 654.47,551.50 C655.83,549.30 656.95,546.77 656.97,545.88 C657.00,544.37 662.66,542.33 663.76,543.43 C664.00,543.67 663.59,546.71 662.84,550.18 ZM 833.22 555.25 C832.38,556.21 830.38,557.00 828.78,557.00 C826.22,557.00 825.95,556.73 826.56,554.75 C826.94,553.51 827.87,551.28 828.63,549.80 C829.38,548.31 830.00,546.44 830.00,545.64 C830.00,544.26 837.50,542.17 838.58,543.25 C839.21,543.87 835.07,553.14 833.22,555.25 ZM 746.36 569.50 C747.35,572.08 749.00,571.14 749.00,568.00 C749.00,566.35 748.54,565.00 747.97,565.00 C746.59,565.00 745.65,567.64 746.36,569.50 ZM 638.00 297.56 C638.00,298.90 638.42,300.00 638.93,300.00 C640.16,300.00 641.31,296.31 640.50,294.99 C639.49,293.36 638.00,294.89 638.00,297.56 Z" fill="rgb(2,2,2)"/>
<path d="M 835.00 514.68 C835.00,515.32 651.31,514.98 650.67,514.33 C650.30,513.97 650.00,485.22 650.00,450.45 C650.00,391.11 650.11,387.20 651.75,386.71 C658.23,384.76 710.08,364.84 731.43,356.11 C739.64,352.75 746.46,350.00 746.59,350.00 C746.72,350.00 750.31,356.53 754.56,364.51 C759.94,374.63 763.53,380.13 766.39,382.67 C768.65,384.68 779.51,394.91 790.52,405.41 C801.52,415.91 813.13,426.85 816.32,429.72 L 822.10 434.94 L 823.04 446.22 C823.56,452.42 825.34,464.48 827.01,473.00 C828.67,481.52 830.06,489.17 830.11,490.00 C830.30,493.71 832.31,504.95 833.59,509.43 C834.37,512.14 835.00,514.51 835.00,514.68 Z" fill="rgb(137,182,204)"/>
<path d="M 838.00 513.61 C837.40,513.79 836.42,513.95 834.87,514.09 C834.65,513.20 834.16,511.41 833.59,509.43 C832.31,504.95 830.30,493.71 830.11,490.00 C830.09,489.75 829.96,488.90 829.74,487.59 C830.66,489.48 834.54,488.75 841.00,485.47 C851.20,480.28 855.01,473.41 854.98,460.28 C854.94,445.83 852.51,442.06 829.19,420.33 C802.55,395.50 795.98,386.55 793.74,372.05 C791.48,357.45 797.47,340.90 809.73,327.90 C819.01,318.07 833.93,311.00 845.42,311.00 C851.14,311.00 864.53,314.72 871.46,318.24 C878.08,321.61 886.86,330.81 890.80,338.50 C894.01,344.79 894.42,346.48 894.80,355.25 L 895.23 365.00 L 873.00 365.00 L 872.99 361.75 C872.97,355.72 870.22,347.82 866.98,344.48 C865.27,342.71 861.13,339.85 857.79,338.13 C843.24,330.63 828.89,336.63 820.52,353.72 C814.29,366.45 816.05,373.43 828.94,387.16 C833.82,392.37 844.11,402.11 851.80,408.83 C866.90,422.01 872.35,428.91 876.03,439.54 C881.31,454.81 880.71,470.62 874.33,484.22 C867.89,497.96 854.87,508.49 838.00,513.61 ZM 790.00 181.43 C790.00,214.04 789.63,236.00 789.08,236.00 C788.57,236.00 783.28,231.39 777.31,225.75 C764.13,213.30 757.03,208.93 727.01,194.86 L 721.52 192.28 L 725.03 188.89 C726.96,187.03 741.23,173.20 756.75,158.16 C772.26,143.13 786.09,129.93 787.48,128.84 L 790.00 126.85 ZM 599.02 227.46 C593.81,232.71 589.19,237.00 588.77,237.00 C588.35,237.00 588.00,212.44 588.00,182.43 C588.00,134.81 588.19,127.89 589.48,128.18 C590.91,128.49 648.06,183.60 652.92,189.36 C653.83,190.43 654.59,191.06 654.61,191.71 C654.64,192.98 651.80,194.33 641.46,199.22 C640.11,199.86 638.62,200.57 637.00,201.34 C618.95,209.92 611.08,215.33 599.02,227.46 ZM 824.18 455.85 C823.91,453.95 823.68,452.13 823.48,450.48 C823.68,452.12 823.91,453.93 824.18,455.85 ZM 822.18 435.92 L 822.10 434.94 L 822.10 434.95 Z" fill="rgb(194,166,64)"/>
<path d="M 0.00 378.00 L 0.00 0.00 L 693.50 0.00 L 1387.00 0.00 L 1387.00 378.00 L 1387.00 756.00 L 693.50 756.00 L 0.00 756.00 L 0.00 378.00 ZM 746.28 582.25 C746.11,580.63 746.94,580.00 750.46,579.12 C761.12,576.43 762.31,563.21 752.27,558.90 C749.76,557.83 747.51,556.01 746.83,554.53 C745.37,551.32 746.42,550.17 748.82,552.34 C749.83,553.25 752.31,554.00 754.33,554.00 C757.50,554.00 758.00,553.69 758.00,551.67 C758.00,548.84 754.29,545.17 750.38,544.13 C748.24,543.57 747.42,542.67 747.18,540.68 C746.77,537.20 743.01,536.81 742.99,540.25 C742.98,541.92 741.96,542.93 739.03,544.16 C734.89,545.90 731.01,550.93 731.00,554.56 C731.00,557.17 735.57,561.61 739.78,563.07 C742.41,563.99 743.00,564.73 743.00,567.10 C743.00,569.96 741.70,570.95 740.50,569.00 C740.16,568.45 737.88,568.00 735.44,568.00 C731.77,568.00 731.00,568.32 731.00,569.87 C731.00,572.93 734.84,576.87 739.05,578.13 C742.08,579.04 743.00,579.83 743.00,581.49 C743.00,582.69 743.31,583.98 743.69,584.35 C744.93,585.60 746.50,584.32 746.28,582.25 ZM 708.00 569.94 C708.00,560.28 709.35,556.78 712.91,557.20 C716.54,557.63 717.97,561.27 717.99,570.14 L 718.00 577.78 L 721.52 578.44 C723.45,578.80 725.48,578.82 726.02,578.49 C726.56,578.16 727.00,573.73 727.00,568.65 C727.00,561.07 726.60,558.63 724.75,554.96 C722.60,550.70 722.28,550.49 717.66,550.19 C714.49,549.99 712.00,550.43 710.41,551.46 C708.21,552.91 708.00,552.91 708.00,551.47 C708.00,550.22 707.09,549.95 703.75,550.19 L 699.50 550.50 L 699.22 563.45 C699.06,570.57 699.13,576.88 699.36,577.48 C699.60,578.12 701.49,578.41 703.89,578.18 L 708.00 577.79 L 708.00 569.94 ZM 791.00 568.15 C791.00,558.51 790.75,556.92 788.72,553.90 C786.72,550.93 785.82,550.46 781.63,550.19 C778.49,549.99 775.99,550.43 774.41,551.46 C772.28,552.86 772.00,552.87 772.00,551.52 C772.00,549.35 764.44,549.40 763.61,551.58 C762.81,553.66 762.83,564.10 763.65,571.90 L 764.30 578.10 L 768.40 577.80 L 772.50 577.50 L 772.50 568.67 C772.50,561.08 772.77,559.64 774.44,558.42 C777.14,556.44 779.74,556.65 780.96,558.93 C781.53,560.00 782.00,564.69 782.00,569.36 C782.00,578.56 782.04,578.62 788.25,578.88 L 791.00 579.00 L 791.00 568.15 ZM 676.22 563.25 C677.06,562.29 678.29,559.81 678.95,557.75 C679.61,555.69 680.49,554.00 680.90,554.00 C681.32,554.00 682.74,556.36 684.08,559.25 C686.33,564.13 686.77,564.52 690.39,564.82 C694.24,565.13 694.27,565.11 693.67,562.08 C693.33,560.39 691.38,555.64 689.34,551.51 L 685.63 544.00 L 680.96 544.00 L 676.29 544.00 L 672.13 553.25 C669.84,558.34 667.98,563.06 667.98,563.75 C668.01,565.68 674.44,565.29 676.22,563.25 ZM 805.92 559.25 C807.26,556.36 808.61,554.02 808.92,554.05 C809.24,554.07 810.62,556.43 812.00,559.30 C814.29,564.06 814.82,564.53 818.25,564.81 C820.31,564.98 822.00,564.76 822.00,564.31 C822.01,563.86 820.09,559.12 817.75,553.77 L 813.50 544.04 L 808.78 544.02 C804.57,544.00 803.89,544.32 802.56,546.88 C800.73,550.42 796.00,562.89 796.00,564.18 C796.00,564.70 797.69,564.98 799.75,564.81 C803.20,564.52 803.69,564.08 805.92,559.25 ZM 662.84 550.18 C663.59,546.71 664.00,543.67 663.76,543.43 C662.66,542.33 657.00,544.37 656.97,545.88 C656.95,546.77 655.83,549.30 654.47,551.50 C653.12,553.70 652.01,555.86 652.01,556.30 C652.00,556.75 654.13,556.97 656.74,556.80 L 661.49 556.50 L 662.84 550.18 ZM 833.22 555.25 C835.07,553.14 839.21,543.87 838.58,543.25 C837.50,542.17 830.00,544.26 830.00,545.64 C830.00,546.44 829.38,548.31 828.63,549.80 C827.87,551.28 826.94,553.51 826.56,554.75 C825.95,556.73 826.22,557.00 828.78,557.00 C830.38,557.00 832.38,556.21 833.22,555.25 ZM 838.00 513.61 C854.87,508.49 867.89,497.96 874.33,484.22 C880.71,470.62 881.31,454.81 876.03,439.54 C872.35,428.91 866.90,422.01 851.80,408.83 C844.11,402.11 833.82,392.37 828.94,387.16 C816.05,373.43 814.29,366.45 820.52,353.72 C828.89,336.63 843.24,330.63 857.79,338.13 C861.13,339.85 865.27,342.71 866.98,344.48 C870.22,347.82 872.97,355.72 872.99,361.75 L 873.00 365.00 L 884.12 365.00 L 895.23 365.00 L 894.80 355.25 C894.42,346.48 894.01,344.79 890.80,338.50 C886.86,330.81 878.08,321.61 871.46,318.24 C864.53,314.72 851.14,311.00 845.42,311.00 C833.93,311.00 819.01,318.07 809.73,327.90 C797.47,340.90 791.48,357.45 793.74,372.05 C795.98,386.55 802.55,395.50 829.19,420.33 C852.51,442.06 854.94,445.83 854.98,460.28 C855.01,473.41 851.20,480.28 841.00,485.47 C834.24,488.90 830.30,489.54 829.63,487.31 C828.07,482.18 823.75,455.13 822.98,445.72 L 822.10 434.95 L 816.32 429.72 C813.13,426.85 801.52,415.91 790.52,405.41 C779.51,394.91 768.65,384.68 766.39,382.67 C763.53,380.13 759.94,374.63 754.56,364.51 C750.31,356.53 746.72,350.00 746.59,350.00 C746.46,350.00 739.64,352.75 731.43,356.11 C710.08,364.84 658.23,384.76 651.75,386.71 C650.11,387.20 650.00,391.11 650.00,450.45 C650.00,485.22 650.30,513.97 650.67,514.33 C651.03,514.70 692.32,515.00 742.42,514.99 C816.54,514.98 834.34,514.72 838.00,513.61 ZM 653.35 321.05 C656.47,319.98 660.25,318.35 661.76,317.44 C666.18,314.77 674.15,304.45 679.00,295.14 L 683.50 286.50 L 689.31 286.50 C694.51,286.50 695.26,286.77 696.39,289.00 C697.09,290.38 699.42,295.08 701.58,299.45 C709.31,315.12 718.86,321.65 735.63,322.74 C756.54,324.10 772.55,313.19 786.63,288.00 C792.69,277.15 796.24,260.86 793.97,254.33 C792.32,249.62 787.45,248.65 768.28,249.25 C754.40,249.68 750.85,250.16 738.81,253.28 C731.28,255.22 722.28,258.16 718.81,259.79 C715.34,261.43 708.46,264.67 703.53,267.00 C695.15,270.96 694.12,271.20 688.03,270.74 C682.76,270.33 679.19,269.14 669.50,264.51 C655.77,257.97 644.39,253.86 631.56,250.85 C623.90,249.05 620.45,248.81 607.56,249.21 C591.19,249.71 588.05,250.58 583.99,255.73 C582.21,258.00 581.92,259.31 582.41,263.00 C583.46,270.84 588.81,285.88 592.67,291.79 C597.49,299.20 611.21,312.86 617.54,316.58 C627.99,322.70 643.07,324.59 653.35,321.05 ZM 753.37 238.93 C758.53,234.87 755.92,227.00 749.42,227.00 C740.35,227.00 740.99,239.75 750.12,240.92 C750.45,240.96 751.92,240.07 753.37,238.93 ZM 599.02 227.46 C611.08,215.33 618.95,209.92 637.00,201.34 C657.33,191.68 655.83,192.80 652.92,189.36 C648.06,183.60 590.91,128.49 589.48,128.18 C588.19,127.89 588.00,134.81 588.00,182.43 C588.00,212.44 588.35,237.00 588.77,237.00 C589.19,237.00 593.81,232.71 599.02,227.46 ZM 790.00 181.43 L 790.00 126.85 L 787.48 128.84 C786.09,129.93 772.26,143.13 756.75,158.16 C741.23,173.20 726.96,187.03 725.03,188.89 L 721.52 192.28 L 727.01 194.86 C757.03,208.93 764.13,213.30 777.31,225.75 C783.28,231.39 788.57,236.00 789.08,236.00 C789.63,236.00 790.00,214.04 790.00,181.43 ZM 746.36 569.50 C745.65,567.64 746.59,565.00 747.97,565.00 C748.54,565.00 749.00,566.35 749.00,568.00 C749.00,571.14 747.35,572.08 746.36,569.50 ZM 630.42 314.57 C623.61,312.33 620.70,310.44 615.44,304.85 C605.08,293.85 600.99,285.10 601.01,274.07 C601.04,265.00 602.05,263.92 612.50,261.81 C622.50,259.79 627.08,260.00 642.00,263.17 C653.73,265.66 663.64,270.65 669.04,276.79 C672.46,280.66 673.00,281.93 673.00,285.99 C673.00,292.35 671.50,296.38 666.46,303.54 C660.35,312.20 654.32,315.32 643.00,315.66 C637.87,315.81 632.88,315.38 630.42,314.57 ZM 648.25 304.34 C651.03,302.93 652.06,299.97 649.75,300.03 C649.06,300.05 647.63,300.72 646.56,301.53 C643.62,303.75 643.39,303.45 643.45,297.50 C643.49,293.22 643.84,292.00 645.05,292.00 C645.90,292.00 647.14,292.54 647.80,293.20 C648.72,294.12 649.27,294.13 650.18,293.22 C651.08,292.32 650.93,291.58 649.52,290.03 C647.91,288.25 646.69,288.04 639.31,288.33 C633.14,288.57 630.48,289.09 629.25,290.32 C627.95,291.62 627.85,292.25 628.79,293.19 C629.73,294.13 630.27,294.13 631.20,293.20 C631.86,292.54 633.10,292.00 633.95,292.01 C635.15,292.01 635.52,293.25 635.58,297.51 C635.67,303.43 635.40,303.77 632.44,301.53 C629.93,299.64 628.00,299.61 628.00,301.47 C628.00,305.35 642.24,307.37 648.25,304.34 ZM 725.72 314.56 C716.82,311.39 710.09,303.77 707.46,293.91 C705.11,285.07 705.52,280.62 709.04,276.60 C713.54,271.48 722.02,266.23 728.55,264.53 C739.17,261.76 755.34,260.60 764.81,261.93 C777.62,263.72 777.30,263.37 776.84,274.89 C776.50,283.19 776.02,285.44 773.47,290.52 C769.20,299.03 758.91,309.63 751.50,313.15 C746.42,315.56 744.28,315.99 737.50,315.96 C733.10,315.93 727.80,315.30 725.72,314.56 ZM 638.00 297.56 C638.00,294.89 639.49,293.36 640.50,294.99 C641.31,296.31 640.16,300.00 638.93,300.00 C638.42,300.00 638.00,298.90 638.00,297.56 Z" fill="rgb(254,254,254)"/>
</g>
</svg>